<?xml version="1.0" standalone="no"?>
<!DOCTYPE svg PUBLIC "-//W3C//DTD SVG 20010904//EN"
 "http://www.w3.org/TR/2001/REC-SVG-20010904/DTD/svg10.dtd">
<svg version="1.0" xmlns="http://www.w3.org/2000/svg"
 width="512.000000pt" height="512.000000pt" viewBox="0 0 512.000000 512.000000"
 preserveAspectRatio="xMidYMid meet">
<metadata>
Created by potrace 1.11, written by Peter Selinger 2001-2013
</metadata>
<g transform="translate(0.000000,512.000000) scale(0.100000,-0.100000)"
fill="#000000" stroke="none">
<path d="M565 5105 c-270 -50 -494 -248 -550 -487 -11 -46 -15 -127 -15 -305
l0 -243 343 0 342 0 385 -886 c211 -487 387 -887 390 -889 4 -2 747 1610 797
1732 l18 43 469 -3 469 -2 286 -417 c157 -229 290 -416 296 -414 5 1 138 189
295 417 l286 414 372 3 372 2 0 243 c0 269 -8 324 -61 430 -94 187 -283 322
-509 363 -108 19 -3879 19 -3985 -1z"/>
<path d="M1 2200 c-1 -1407 1 -1644 14 -1698 58 -246 293 -448 572 -491 115
-18 3864 -15 3963 3 226 41 415 176 509 363 54 108 61 159 61 451 l0 262 -417
0 -418 1 -165 245 c-151 225 -163 246 -151 266 40 65 413 593 420 596 5 2 171
-221 370 -494 l361 -497 0 1294 c0 737 -4 1289 -9 1283 -5 -5 -437 -615 -961
-1356 l-953 -1348 -147 0 -148 0 -7 68 c-15 144 -81 289 -185 404 l-52 58 337
471 c186 259 338 476 339 482 2 18 -597 848 -606 839 -4 -4 -178 -382 -387
-841 l-380 -834 -66 -33 c-110 -55 -212 -148 -277 -256 -60 -98 -86 -180 -104
-331 l-5 -48 -140 3 -141 3 -598 1355 c-330 745 -606 1369 -614 1385 -13 27
-15 -158 -15 -1605z m2314 -714 c252 -67 385 -348 276 -582 -130 -278 -493
-336 -697 -111 -176 196 -137 496 85 642 88 59 228 80 336 51z"/>
</g>
</svg>
