<?xml version="1.0" encoding="utf-8"?>
<!-- Generator: Adobe Illustrator 23.0.2, SVG Export Plug-In . SVG Version: 6.00 Build 0)  -->
<svg version="1.1" id="图层_1" xmlns="http://www.w3.org/2000/svg" xmlns:xlink="http://www.w3.org/1999/xlink" x="0px" y="0px"
	 viewBox="0 0 24 24" style="enable-background:new 0 0 24 24;" xml:space="preserve">
<style type="text/css">
	.st0{fill:#FFFFFF;}
</style>
<path class="st0" d="M22,17.6c-0.8,2.3-3.1,6.3-5.6,6.4c-1.6,0-2.1-1-4-1c-1.8,0-2.4,0.9-3.9,1C6,24.1,2,18.2,2,13
	c0-4.7,3.3-7.1,6.2-7.1c1.6,0,3,1,4,1c0.9,0,2.7-1.3,4.6-1.1c0.8,0,3,0.3,4.4,2.4C17.4,10.6,18,15.7,22,17.6z M16.8,0
	C14,0.1,11.6,3.1,12,5.5C14.6,5.7,17.1,2.8,16.8,0z"/>
</svg>
