<?xml version="1.0" encoding="UTF-8" standalone="no"?>
<!DOCTYPE svg PUBLIC "-//W3C//DTD SVG 1.1//EN" "http://www.w3.org/Graphics/SVG/1.1/DTD/svg11.dtd">
<svg version="1.1" xmlns="http://www.w3.org/2000/svg" xmlns:xlink="http://www.w3.org/1999/xlink" preserveAspectRatio="xMidYMid meet" viewBox="5.002968757219938 254.87188612099632 484.709315940289 101.636" width="480.71" height="97.64"><defs><path d="M86.11 300.93L55.6 300.93L28.9 327.22L44.15 342.24L86.11 300.93Z" id="d1Rv4XVmab"></path><path d="M55.6 255.87L86.11 255.87L21.27 319.71L6 304.69L55.6 255.87Z" id="d2KokN4CXU"></path><path d="M86.11 353.5L59.41 327.22L44.15 342.24L55.6 353.5L86.11 353.5Z" id="lLXStOtRs"></path><path d="M44.15 342.24L66.78 334.52L59.41 327.22L44.15 342.24Z" id="b9PtXRPJuS"></path><linearGradient id="gradientbFNbC6wb" gradientUnits="userSpaceOnUse" x1="-2388.14" y1="-799.6" x2="-2387.7" y2="-800.04"><stop style="stop-color: #1a237e;stop-opacity: 0.4" offset="0%"></stop><stop style="stop-color: #1a237e;stop-opacity: 0" offset="100%"></stop></linearGradient><path d="M44.16 312.19L59.42 327.21L44.16 342.24L28.9 327.21L44.16 312.19Z" id="asyxTxFN"></path><path d="M59.41 327.22L86.11 353.51L55.6 353.51L44.15 342.24L28.89 327.22L55.6 300.93L86.11 300.93L59.41 327.22ZM6 304.69L21.27 319.71L86.11 255.87L55.6 255.87L6 304.69Z" id="b2nUNHvxZ"></path><radialGradient id="gradientd7b8Sb9Xsv" gradientUnits="userSpaceOnUse" cx="-2182.12" cy="-622.32" dx="-2368.91" dy="-708.01" r="205.51"><stop style="stop-color: #ffffff;stop-opacity: 0.1" offset="0%"></stop><stop style="stop-color: #ffffff;stop-opacity: 0" offset="100%"></stop></radialGradient><path d="M106.77 255.87L162.1 255.87L162.1 266.43L118.36 266.43L118.36 299.15L157.88 299.15L157.88 309.7L118.36 309.7L118.36 350.87L107.3 350.87L107.3 255.87L106.77 255.87Z" id="l2dJu2DxrT"></path><path d="M186.34 255.87L186.34 351.4L175.27 351.4L175.27 255.87L186.34 255.87Z" id="a50mWJ5xWU"></path><path d="M209 346.12C204.78 341.37 202.68 334.51 202.68 326.06C202.68 323.21 202.68 308.96 202.68 283.32L213.74 283.32C213.74 308.01 213.74 321.74 213.74 324.48C213.74 330.81 215.32 335.56 217.96 338.73C221.12 341.9 224.81 343.48 230.08 343.48C233.77 343.48 237.46 342.42 240.09 340.31C243.25 338.2 245.36 335.56 246.94 332.4C248.52 329.23 249.58 325.54 249.58 321.84C249.58 319.27 249.58 306.43 249.58 283.32L260.64 283.32L260.64 351.4L250.1 351.4L250.1 341.37C249.79 341.37 249.61 341.37 249.58 341.37C247.47 344.54 244.83 347.7 240.62 349.81C236.93 352.45 232.71 353.51 227.97 353.51C219.54 353.51 213.74 350.87 209 346.12Z" id="a19ERJR1Ai"></path><path d="M297 350.87C294.9 349.81 292.79 348.76 291.21 347.17C289.63 345.59 288.05 343.48 286.99 341.37C285.94 339.26 285.41 336.62 285.41 333.45C285.41 330.78 285.41 317.41 285.41 293.34L273.29 293.34L273.29 283.32L285.41 283.32L285.41 264.32L296.48 264.32L296.48 283.32L312.81 283.32L312.81 293.34L296.48 293.34C296.48 315.51 296.48 327.82 296.48 330.29C296.48 333.98 297 336.62 298.58 338.73C300.17 340.84 302.8 341.9 305.96 341.9C308.6 341.9 311.23 341.37 313.34 339.79C313.34 340.89 313.34 349.76 313.34 350.87C311.76 351.4 310.71 351.92 309.12 352.45C309.12 352.45 307.02 352.45 304.91 352.45C302.27 352.45 299.64 351.92 297 350.87Z" id="b1o7WpvUS"></path><path d="M344.96 350.87C342.85 349.81 340.74 348.76 339.16 347.17C337.58 345.59 336 343.48 334.95 341.37C333.89 339.26 333.36 336.62 333.36 333.45C333.36 330.78 333.36 317.41 333.36 293.34L322.3 293.34L322.3 283.32L334.42 283.32L334.42 264.32L345.49 264.32L345.49 283.32L361.82 283.32L361.82 293.34L345.49 293.34C345.49 315.51 345.49 327.82 345.49 330.29C345.49 333.98 346.01 336.62 347.59 338.73C349.17 340.84 351.81 341.9 354.97 341.9C357.61 341.9 360.24 341.37 362.35 339.79C362.35 340.89 362.35 349.76 362.35 350.87C360.77 351.4 359.71 351.92 358.13 352.45C357.08 352.45 354.97 352.45 352.86 352.45C350.23 352.45 347.59 351.92 344.96 350.87Z" id="a6Tqn0syA"></path><path d="M385.53 348.76C380.26 345.59 376.58 341.37 373.41 336.09C370.78 330.81 369.2 324.48 369.2 317.62C369.2 311.29 370.78 304.95 373.41 299.68C376.05 294.4 380.26 289.65 385.01 286.48C389.75 283.32 395.55 281.73 402.4 281.73C409.25 281.73 415.04 283.32 419.79 286.48C424.53 289.65 428.22 293.34 430.85 298.62C433.49 303.9 435.07 309.7 435.07 316.56C435.07 318.15 435.07 319.2 434.54 320.26C429.11 320.26 385.69 320.26 380.26 320.26C380.79 325.54 381.85 329.76 383.95 333.45C386.06 337.15 389.22 339.79 392.39 341.37C396.07 342.95 399.24 344.01 402.92 344.01C411.88 344.01 418.21 339.79 422.95 331.87C423.9 332.34 431.49 336.14 432.43 336.62C429.27 341.9 425.58 346.65 420.31 349.81C416.1 351.92 410.3 353.51 402.92 353.51C402.92 353.51 402.92 353.51 402.92 353.51C394.84 352.45 389.05 350.87 385.53 348.76ZM419.79 301.79C418.21 299.15 416.1 296.51 412.94 294.4C409.78 292.29 406.09 291.23 401.34 291.23C396.07 291.23 391.33 292.82 387.64 296.51C383.95 299.68 381.85 304.43 380.26 310.23C383.08 310.23 397.13 310.23 422.42 310.23C421.72 306.36 420.84 303.55 419.79 301.79Z" id="ajM6ZvZMg"></path><path d="M458.26 283.32L458.26 294.4C458.57 294.4 458.75 294.4 458.78 294.4C460.36 290.7 462.47 287.54 466.69 285.43C470.38 282.79 474.59 281.73 478.81 281.73C481.97 281.73 484.6 282.26 486.71 283.32C486.71 284.53 486.71 294.24 486.71 295.45C484.08 293.87 480.92 293.34 477.23 293.34C474.07 293.34 470.9 294.4 468.27 295.98C465.63 298.09 463.53 300.2 461.42 303.37C459.84 306.54 458.78 309.7 458.78 313.4C458.78 315.93 458.78 328.6 458.78 351.4L447.72 351.4L447.72 283.32L458.26 283.32Z" id="d1fHvsYL1v"></path></defs><g><g><use xlink:href="#d1Rv4XVmab" opacity="1" fill="#39cefd" fill-opacity="1"></use><g><use xlink:href="#d1Rv4XVmab" opacity="1" fill-opacity="0" stroke="#000000" stroke-width="1" stroke-opacity="0"></use></g></g><g><use xlink:href="#d2KokN4CXU" opacity="1" fill="#39cefd" fill-opacity="1"></use><g><use xlink:href="#d2KokN4CXU" opacity="1" fill-opacity="0" stroke="#000000" stroke-width="1" stroke-opacity="0"></use></g></g><g><use xlink:href="#lLXStOtRs" opacity="1" fill="#03569b" fill-opacity="1"></use><g><use xlink:href="#lLXStOtRs" opacity="1" fill-opacity="0" stroke="#000000" stroke-width="1" stroke-opacity="0"></use></g></g><g><use xlink:href="#b9PtXRPJuS" opacity="1" fill="url(#gradientbFNbC6wb)"></use><g><use xlink:href="#b9PtXRPJuS" opacity="1" fill-opacity="0" stroke="#000000" stroke-width="1" stroke-opacity="0"></use></g></g><g><use xlink:href="#asyxTxFN" opacity="1" fill="#16b9fd" fill-opacity="1"></use><g><use xlink:href="#asyxTxFN" opacity="1" fill-opacity="0" stroke="#000000" stroke-width="1" stroke-opacity="0"></use></g></g><g><use xlink:href="#b2nUNHvxZ" opacity="1" fill="url(#gradientd7b8Sb9Xsv)"></use><g><use xlink:href="#b2nUNHvxZ" opacity="1" fill-opacity="0" stroke="#000000" stroke-width="1" stroke-opacity="0"></use></g></g><g><use xlink:href="#l2dJu2DxrT" opacity="1" fill="#808080" fill-opacity="1"></use><g><use xlink:href="#l2dJu2DxrT" opacity="1" fill-opacity="0" stroke="#000000" stroke-width="1" stroke-opacity="0"></use></g></g><g><use xlink:href="#a50mWJ5xWU" opacity="1" fill="#808080" fill-opacity="1"></use><g><use xlink:href="#a50mWJ5xWU" opacity="1" fill-opacity="0" stroke="#000000" stroke-width="1" stroke-opacity="0"></use></g></g><g><use xlink:href="#a19ERJR1Ai" opacity="1" fill="#808080" fill-opacity="1"></use><g><use xlink:href="#a19ERJR1Ai" opacity="1" fill-opacity="0" stroke="#000000" stroke-width="1" stroke-opacity="0"></use></g></g><g><use xlink:href="#b1o7WpvUS" opacity="1" fill="#808080" fill-opacity="1"></use><g><use xlink:href="#b1o7WpvUS" opacity="1" fill-opacity="0" stroke="#000000" stroke-width="1" stroke-opacity="0"></use></g></g><g><use xlink:href="#a6Tqn0syA" opacity="1" fill="#808080" fill-opacity="1"></use><g><use xlink:href="#a6Tqn0syA" opacity="1" fill-opacity="0" stroke="#000000" stroke-width="1" stroke-opacity="0"></use></g></g><g><use xlink:href="#ajM6ZvZMg" opacity="1" fill="#808080" fill-opacity="1"></use><g><use xlink:href="#ajM6ZvZMg" opacity="1" fill-opacity="0" stroke="#000000" stroke-width="1" stroke-opacity="0"></use></g></g><g><use xlink:href="#d1fHvsYL1v" opacity="1" fill="#808080" fill-opacity="1"></use><g><use xlink:href="#d1fHvsYL1v" opacity="1" fill-opacity="0" stroke="#000000" stroke-width="1" stroke-opacity="0"></use></g></g></g></svg>