<svg xmlns="http://www.w3.org/2000/svg" xmlns:xlink="http://www.w3.org/1999/xlink" width="1000" height="1000" viewBox="0 0 1000 1000">
  <defs>
    <style>
      .cls-1 {
        fill: #9b9b9b;
      }

      .cls-1, .cls-2, .cls-3 {
        fill-rule: evenodd;
      }

      .cls-2 {
        fill: url(#linear-gradient);
      }

      .cls-3 {
        fill: #04777a;
      }
    </style>
    <linearGradient id="linear-gradient" x1="495.5" y1="834" x2="495.5" y2="169" gradientUnits="userSpaceOnUse">
      <stop offset="0" stop-color="#1e6c76"/>
      <stop offset="1" stop-color="#65b868"/>
    </linearGradient>
  </defs>
  <path id="QR_code_c" data-name="QR code c" class="cls-1" d="M208.5,81a8.5,8.5,0,1,1-8.5,8.5A8.5,8.5,0,0,1,208.5,81Zm33-6a8.5,8.5,0,1,1-8.5,8.5A8.5,8.5,0,0,1,241.5,75Zm34.142,0a8.5,8.5,0,1,1-8.5,8.5A8.5,8.5,0,0,1,275.642,75Zm34.11,0a8.5,8.5,0,1,1-8.5,8.5A8.5,8.5,0,0,1,309.752,75Zm34.142,0a8.5,8.5,0,1,1-8.5,8.5A8.5,8.5,0,0,1,343.894,75Zm34.141,0a8.5,8.5,0,1,1-8.5,8.5A8.5,8.5,0,0,1,378.035,75Zm34.142,0a8.5,8.5,0,1,1-8.5,8.5A8.5,8.5,0,0,1,412.177,75Zm34.111,0a8.5,8.5,0,1,1-8.5,8.5A8.5,8.5,0,0,1,446.288,75Zm34.141,0a8.5,8.5,0,1,1-8.5,8.5A8.5,8.5,0,0,1,480.429,75Zm34.142,0a8.5,8.5,0,1,1-8.5,8.5A8.5,8.5,0,0,1,514.571,75Zm34.142,0a8.5,8.5,0,1,1-8.5,8.5A8.5,8.5,0,0,1,548.713,75Zm34.11,0a8.5,8.5,0,1,1-8.5,8.5A8.5,8.5,0,0,1,582.823,75Zm34.142,0a8.5,8.5,0,1,1-8.5,8.5A8.5,8.5,0,0,1,616.965,75Zm34.141,0a8.5,8.5,0,1,1-8.5,8.5A8.5,8.5,0,0,1,651.106,75Zm34.142,0a8.5,8.5,0,1,1-8.5,8.5A8.5,8.5,0,0,1,685.248,75Zm34.11,0a8.5,8.5,0,1,1-8.5,8.5A8.5,8.5,0,0,1,719.358,75ZM753.5,75a8.5,8.5,0,1,1-8.5,8.5A8.5,8.5,0,0,1,753.5,75Zm-577,18a8.5,8.5,0,1,1-8.5,8.5A8.5,8.5,0,0,1,176.5,93Zm-29,18a8.5,8.5,0,1,1-8.5,8.5A8.5,8.5,0,0,1,147.5,111Zm-24,24a8.5,8.5,0,1,1-8.5,8.5A8.5,8.5,0,0,1,123.5,135Zm-19,28a8.5,8.5,0,1,1-8.5,8.5A8.5,8.5,0,0,1,104.5,163Zm-13,32a8.5,8.5,0,1,1-8.5,8.5A8.5,8.5,0,0,1,91.5,195Zm-6,33a8.5,8.5,0,1,1-8.5,8.5A8.5,8.5,0,0,1,85.5,228Zm0,34a8.5,8.5,0,1,1-8.5,8.5A8.5,8.5,0,0,1,85.5,262ZM94,304.642a8.5,8.5,0,1,1-8.5-8.5A8.5,8.5,0,0,1,94,304.642Zm0,34.11a8.5,8.5,0,1,1-8.5-8.5A8.5,8.5,0,0,1,94,338.752Zm0,34.142a8.5,8.5,0,1,1-8.5-8.5A8.5,8.5,0,0,1,94,372.894Zm0,34.141a8.5,8.5,0,1,1-8.5-8.5A8.5,8.5,0,0,1,94,407.035Zm0,34.142a8.5,8.5,0,1,1-8.5-8.5A8.5,8.5,0,0,1,94,441.177Zm0,34.111a8.5,8.5,0,1,1-8.5-8.5A8.5,8.5,0,0,1,94,475.288Zm0,34.141a8.5,8.5,0,1,1-8.5-8.5A8.5,8.5,0,0,1,94,509.429Zm0,34.142a8.5,8.5,0,1,1-8.5-8.5A8.5,8.5,0,0,1,94,543.571Zm0,34.142a8.5,8.5,0,1,1-8.5-8.5A8.5,8.5,0,0,1,94,577.713Zm0,34.11a8.5,8.5,0,1,1-8.5-8.5A8.5,8.5,0,0,1,94,611.823Zm0,34.142a8.5,8.5,0,1,1-8.5-8.5A8.5,8.5,0,0,1,94,645.965Zm0,34.141a8.5,8.5,0,1,1-8.5-8.5A8.5,8.5,0,0,1,94,680.106Zm0,34.142a8.5,8.5,0,1,1-8.5-8.5A8.5,8.5,0,0,1,94,714.248Zm0,34.11a8.5,8.5,0,1,1-8.5-8.5A8.5,8.5,0,0,1,94,748.358ZM85.5,774a8.5,8.5,0,1,1-8.5,8.5A8.5,8.5,0,0,1,85.5,774Zm690,129a8.5,8.5,0,1,1-8.5,8.5A8.5,8.5,0,0,1,775.5,903Zm-34,2a8.5,8.5,0,1,1-8.5,8.5A8.5,8.5,0,0,1,741.5,905Zm-34.142,17a8.5,8.5,0,1,1,8.5-8.5A8.5,8.5,0,0,1,707.358,922Zm-34.11,0a8.5,8.5,0,1,1,8.5-8.5A8.5,8.5,0,0,1,673.248,922Zm-34.142,0a8.5,8.5,0,1,1,8.5-8.5A8.5,8.5,0,0,1,639.106,922Zm-34.141,0a8.5,8.5,0,1,1,8.5-8.5A8.5,8.5,0,0,1,604.965,922Zm-34.142,0a8.5,8.5,0,1,1,8.5-8.5A8.5,8.5,0,0,1,570.823,922Zm-34.11,0a8.5,8.5,0,1,1,8.5-8.5A8.5,8.5,0,0,1,536.713,922Zm-34.142,0a8.5,8.5,0,1,1,8.5-8.5A8.5,8.5,0,0,1,502.571,922Zm-34.142,0a8.5,8.5,0,1,1,8.5-8.5A8.5,8.5,0,0,1,468.429,922Zm-34.141,0a8.5,8.5,0,1,1,8.5-8.5A8.5,8.5,0,0,1,434.288,922Zm-34.111,0a8.5,8.5,0,1,1,8.5-8.5A8.5,8.5,0,0,1,400.177,922Zm-34.142,0a8.5,8.5,0,1,1,8.5-8.5A8.5,8.5,0,0,1,366.035,922Zm-34.141,0a8.5,8.5,0,1,1,8.5-8.5A8.5,8.5,0,0,1,331.894,922Zm-34.142,0a8.5,8.5,0,1,1,8.5-8.5A8.5,8.5,0,0,1,297.752,922Zm-34.11,0a8.5,8.5,0,1,1,8.5-8.5A8.5,8.5,0,0,1,263.642,922ZM229.5,905a8.5,8.5,0,1,1-8.5,8.5A8.5,8.5,0,0,1,229.5,905Zm579-10a8.5,8.5,0,1,1-8.5,8.5A8.5,8.5,0,0,1,808.5,895Zm31-16a8.5,8.5,0,1,1-8.5,8.5A8.5,8.5,0,0,1,839.5,879Zm26-21a8.5,8.5,0,1,1-8.5,8.5A8.5,8.5,0,0,1,865.5,858Zm22-26a8.5,8.5,0,1,1-8.5,8.5A8.5,8.5,0,0,1,887.5,832Zm16-31a8.5,8.5,0,1,1-8.5,8.5A8.5,8.5,0,0,1,903.5,801Zm9-33a8.5,8.5,0,1,1-8.5,8.5A8.5,8.5,0,0,1,912.5,768Zm2-33a8.5,8.5,0,1,1-8.5,8.5A8.5,8.5,0,0,1,914.5,735ZM906,709.358a8.5,8.5,0,1,1,8.5,8.5A8.5,8.5,0,0,1,906,709.358Zm0-34.11a8.5,8.5,0,1,1,8.5,8.5A8.5,8.5,0,0,1,906,675.248Zm0-34.142a8.5,8.5,0,1,1,8.5,8.5A8.5,8.5,0,0,1,906,641.106Zm0-34.141a8.5,8.5,0,1,1,8.5,8.5A8.5,8.5,0,0,1,906,606.965Zm0-34.142a8.5,8.5,0,1,1,8.5,8.5A8.5,8.5,0,0,1,906,572.823Zm0-34.111a8.5,8.5,0,1,1,8.5,8.5A8.5,8.5,0,0,1,906,538.712Zm0-34.141a8.5,8.5,0,1,1,8.5,8.5A8.5,8.5,0,0,1,906,504.571Zm0-34.142a8.5,8.5,0,1,1,8.5,8.5A8.5,8.5,0,0,1,906,470.429Zm0-34.142a8.5,8.5,0,1,1,8.5,8.5A8.5,8.5,0,0,1,906,436.287Zm0-34.11a8.5,8.5,0,1,1,8.5,8.5A8.5,8.5,0,0,1,906,402.177Zm0-34.142a8.5,8.5,0,1,1,8.5,8.5A8.5,8.5,0,0,1,906,368.035Zm0-34.141a8.5,8.5,0,1,1,8.5,8.5A8.5,8.5,0,0,1,906,333.894Zm0-34.142a8.5,8.5,0,1,1,8.5,8.5A8.5,8.5,0,0,1,906,299.752Zm0-34.11a8.5,8.5,0,1,1,8.5,8.5A8.5,8.5,0,0,1,906,265.642ZM914.5,223a8.5,8.5,0,1,1-8.5,8.5A8.5,8.5,0,0,1,914.5,223Z"/>
  <path id="QR_code_b" data-name="QR code b" class="cls-2" d="M403.492,215a10.5,10.5,0,1,1-10.5,10.5A10.5,10.5,0,0,1,403.492,215Zm46,0a10.5,10.5,0,1,1-10.5,10.5A10.5,10.5,0,0,1,449.492,215Zm23,0a10.5,10.5,0,1,1-10.5,10.5A10.5,10.5,0,0,1,472.492,215Zm92,0a10.5,10.5,0,1,1-10.5,10.5A10.5,10.5,0,0,1,564.492,215Zm23,0a10.5,10.5,0,1,1-10.5,10.5A10.5,10.5,0,0,1,587.492,215Zm23,0a10.5,10.5,0,1,1-10.5,10.5A10.5,10.5,0,0,1,610.492,215Zm23,0a10.5,10.5,0,1,1-10.5,10.5A10.5,10.5,0,0,1,633.492,215Zm-253-23a10.5,10.5,0,1,1-10.5,10.5A10.5,10.5,0,0,1,380.492,192Zm46,0a10.5,10.5,0,1,1-10.5,10.5A10.5,10.5,0,0,1,426.492,192Zm69,0a10.5,10.5,0,1,1-10.5,10.5A10.5,10.5,0,0,1,495.492,192Zm92,0a10.5,10.5,0,1,1-10.5,10.5A10.5,10.5,0,0,1,587.492,192Zm46,0a10.5,10.5,0,1,1-10.5,10.5A10.5,10.5,0,0,1,633.492,192Zm-253,0a10.5,10.5,0,1,1-10.5,10.5A10.5,10.5,0,0,1,380.492,192Zm-23,0a10.5,10.5,0,1,1-10.5,10.5A10.5,10.5,0,0,1,357.492,192Zm23-23a10.5,10.5,0,1,1-10.5,10.5A10.5,10.5,0,0,1,380.492,169Zm23,0a10.5,10.5,0,1,1-10.5,10.5A10.5,10.5,0,0,1,403.492,169Zm23,0a10.5,10.5,0,1,1-10.5,10.5A10.5,10.5,0,0,1,426.492,169Zm46,0a10.5,10.5,0,1,1-10.5,10.5A10.5,10.5,0,0,1,472.492,169Zm46,0a10.5,10.5,0,1,1-10.5,10.5A10.5,10.5,0,0,1,518.492,169Zm23,0a10.5,10.5,0,1,1-10.5,10.5A10.5,10.5,0,0,1,541.492,169Zm23,0a10.5,10.5,0,1,1-10.5,10.5A10.5,10.5,0,0,1,564.492,169Zm23,0a10.5,10.5,0,1,1-10.5,10.5A10.5,10.5,0,0,1,587.492,169Zm23,0a10.5,10.5,0,1,1-10.5,10.5A10.5,10.5,0,0,1,610.492,169Zm-207,69a10.5,10.5,0,1,1-10.5,10.5A10.5,10.5,0,0,1,403.492,238Zm46,0a10.5,10.5,0,1,1-10.5,10.5A10.5,10.5,0,0,1,449.492,238Zm23,0a10.5,10.5,0,1,1-10.5,10.5A10.5,10.5,0,0,1,472.492,238Zm69,0a10.5,10.5,0,1,1-10.5,10.5A10.5,10.5,0,0,1,541.492,238Zm46,0a10.5,10.5,0,1,1-10.5,10.5A10.5,10.5,0,0,1,587.492,238Zm23,0a10.5,10.5,0,1,1-10.5,10.5A10.5,10.5,0,0,1,610.492,238Zm-161,23a10.5,10.5,0,1,1-10.5,10.5A10.5,10.5,0,0,1,449.492,261Zm23,0a10.5,10.5,0,1,1-10.5,10.5A10.5,10.5,0,0,1,472.492,261Zm23,0a10.5,10.5,0,1,1-10.5,10.5A10.5,10.5,0,0,1,495.492,261Zm46,0a10.5,10.5,0,1,1-10.5,10.5A10.5,10.5,0,0,1,541.492,261Zm46,0a10.5,10.5,0,1,1-10.5,10.5A10.5,10.5,0,0,1,587.492,261Zm-184,23a10.5,10.5,0,1,1-10.5,10.5A10.5,10.5,0,0,1,403.492,284Zm23,0a10.5,10.5,0,1,1-10.5,10.5A10.5,10.5,0,0,1,426.492,284Zm46,0a10.5,10.5,0,1,1-10.5,10.5A10.5,10.5,0,0,1,472.492,284Zm23,0a10.5,10.5,0,1,1-10.5,10.5A10.5,10.5,0,0,1,495.492,284Zm23,0a10.5,10.5,0,1,1-10.5,10.5A10.5,10.5,0,0,1,518.492,284Zm23,0a10.5,10.5,0,1,1-10.5,10.5A10.5,10.5,0,0,1,541.492,284Zm46,0a10.5,10.5,0,1,1-10.5,10.5A10.5,10.5,0,0,1,587.492,284Zm23,0a10.5,10.5,0,1,1-10.5,10.5A10.5,10.5,0,0,1,610.492,284Zm23,0a10.5,10.5,0,1,1-10.5,10.5A10.5,10.5,0,0,1,633.492,284Zm-230,23a10.5,10.5,0,1,1-10.5,10.5A10.5,10.5,0,0,1,403.492,307Zm46,0a10.5,10.5,0,1,1-10.5,10.5A10.5,10.5,0,0,1,449.492,307Zm46,0a10.5,10.5,0,1,1-10.5,10.5A10.5,10.5,0,0,1,495.492,307Zm46,0a10.5,10.5,0,1,1-10.5,10.5A10.5,10.5,0,0,1,541.492,307Zm46,0a10.5,10.5,0,1,1-10.5,10.5A10.5,10.5,0,0,1,587.492,307Zm46,0a10.5,10.5,0,1,1-10.5,10.5A10.5,10.5,0,0,1,633.492,307Zm-230,23a10.5,10.5,0,1,1-10.5,10.5A10.5,10.5,0,0,1,403.492,330Zm23,0a10.5,10.5,0,1,1-10.5,10.5A10.5,10.5,0,0,1,426.492,330Zm23,0a10.5,10.5,0,1,1-10.5,10.5A10.5,10.5,0,0,1,449.492,330Zm23,0a10.5,10.5,0,1,1-10.5,10.5A10.5,10.5,0,0,1,472.492,330Zm23,0a10.5,10.5,0,1,1-10.5,10.5A10.5,10.5,0,0,1,495.492,330Zm46,0a10.5,10.5,0,1,1-10.5,10.5A10.5,10.5,0,0,1,541.492,330Zm23,0a10.5,10.5,0,1,1-10.5,10.5A10.5,10.5,0,0,1,564.492,330Zm23,0a10.5,10.5,0,1,1-10.5,10.5A10.5,10.5,0,0,1,587.492,330Zm23,0a10.5,10.5,0,1,1-10.5,10.5A10.5,10.5,0,0,1,610.492,330Zm-207,23a10.5,10.5,0,1,1-10.5,10.5A10.5,10.5,0,0,1,403.492,353Zm46,0a10.5,10.5,0,1,1-10.5,10.5A10.5,10.5,0,0,1,449.492,353Zm92,0a10.5,10.5,0,1,1-10.5,10.5A10.5,10.5,0,0,1,541.492,353Zm46,0a10.5,10.5,0,1,1-10.5,10.5A10.5,10.5,0,0,1,587.492,353Zm23,0a10.5,10.5,0,1,1-10.5,10.5A10.5,10.5,0,0,1,610.492,353Zm-184,23a10.5,10.5,0,1,1-10.5,10.5A10.5,10.5,0,0,1,426.492,376Zm23,0a10.5,10.5,0,1,1-10.5,10.5A10.5,10.5,0,0,1,449.492,376Zm23,0a10.5,10.5,0,1,1-10.5,10.5A10.5,10.5,0,0,1,472.492,376Zm23,0a10.5,10.5,0,1,1-10.5,10.5A10.5,10.5,0,0,1,495.492,376Zm23,0a10.5,10.5,0,1,1-10.5,10.5A10.5,10.5,0,0,1,518.492,376Zm23,0a10.5,10.5,0,1,1-10.5,10.5A10.5,10.5,0,0,1,541.492,376Zm23,0a10.5,10.5,0,1,1-10.5,10.5A10.5,10.5,0,0,1,564.492,376Zm46,0a10.5,10.5,0,1,1-10.5,10.5A10.5,10.5,0,0,1,610.492,376Zm23,0a10.5,10.5,0,1,1-10.5,10.5A10.5,10.5,0,0,1,633.492,376Zm-253,23a10.5,10.5,0,1,1-10.5,10.5A10.5,10.5,0,0,1,380.492,399Zm23,0a10.5,10.5,0,1,1-10.5,10.5A10.5,10.5,0,0,1,403.492,399Zm23,0a10.5,10.5,0,1,1-10.5,10.5A10.5,10.5,0,0,1,426.492,399Zm23,0a10.5,10.5,0,1,1-10.5,10.5A10.5,10.5,0,0,1,449.492,399Zm23,0a10.5,10.5,0,1,1-10.5,10.5A10.5,10.5,0,0,1,472.492,399Zm69,0a10.5,10.5,0,1,1-10.5,10.5A10.5,10.5,0,0,1,541.492,399Zm46,0a10.5,10.5,0,1,1-10.5,10.5A10.5,10.5,0,0,1,587.492,399Zm46,0a10.5,10.5,0,1,1-10.5,10.5A10.5,10.5,0,0,1,633.492,399Zm-253,23a10.5,10.5,0,1,1-10.5,10.5A10.5,10.5,0,0,1,380.492,422Zm46,0a10.5,10.5,0,1,1-10.5,10.5A10.5,10.5,0,0,1,426.492,422Zm69,0a10.5,10.5,0,1,1-10.5,10.5A10.5,10.5,0,0,1,495.492,422Zm-115,23a10.5,10.5,0,1,1-10.5,10.5A10.5,10.5,0,0,1,380.492,445Zm23,0a10.5,10.5,0,1,1-10.5,10.5A10.5,10.5,0,0,1,403.492,445Zm23,0a10.5,10.5,0,1,1-10.5,10.5A10.5,10.5,0,0,1,426.492,445Zm46,0a10.5,10.5,0,1,1-10.5,10.5A10.5,10.5,0,0,1,472.492,445Zm46,0a10.5,10.5,0,1,1-10.5,10.5A10.5,10.5,0,0,1,518.492,445Zm46,0a10.5,10.5,0,1,1-10.5,10.5A10.5,10.5,0,0,1,564.492,445Zm46,0a10.5,10.5,0,1,1-10.5,10.5A10.5,10.5,0,0,1,610.492,445Zm-184,23a10.5,10.5,0,1,1-10.5,10.5A10.5,10.5,0,0,1,426.492,468Zm69,0a10.5,10.5,0,1,1-10.5,10.5A10.5,10.5,0,0,1,495.492,468Zm69,0a10.5,10.5,0,1,1-10.5,10.5A10.5,10.5,0,0,1,564.492,468Zm-184,23a10.5,10.5,0,1,1-10.5,10.5A10.5,10.5,0,0,1,380.492,491Zm23,0a10.5,10.5,0,1,1-10.5,10.5A10.5,10.5,0,0,1,403.492,491Zm46,0a10.5,10.5,0,1,1-10.5,10.5A10.5,10.5,0,0,1,449.492,491Zm115,0a10.5,10.5,0,1,1-10.5,10.5A10.5,10.5,0,0,1,564.492,491Zm-184,23a10.5,10.5,0,1,1-10.5,10.5A10.5,10.5,0,0,1,380.492,514Zm69,0a10.5,10.5,0,1,1-10.5,10.5A10.5,10.5,0,0,1,449.492,514Zm23,0a10.5,10.5,0,1,1-10.5,10.5A10.5,10.5,0,0,1,472.492,514Zm46,0a10.5,10.5,0,1,1-10.5,10.5A10.5,10.5,0,0,1,518.492,514Zm115,0a10.5,10.5,0,1,1-10.5,10.5A10.5,10.5,0,0,1,633.492,514Zm-253,23a10.5,10.5,0,1,1-10.5,10.5A10.5,10.5,0,0,1,380.492,537Zm23,0a10.5,10.5,0,1,1-10.5,10.5A10.5,10.5,0,0,1,403.492,537Zm46,0a10.5,10.5,0,1,1-10.5,10.5A10.5,10.5,0,0,1,449.492,537Zm69,0a10.5,10.5,0,1,1-10.5,10.5A10.5,10.5,0,0,1,518.492,537Zm23,0a10.5,10.5,0,1,1-10.5,10.5A10.5,10.5,0,0,1,541.492,537Zm23,0a10.5,10.5,0,1,1-10.5,10.5A10.5,10.5,0,0,1,564.492,537Zm46,0a10.5,10.5,0,1,1-10.5,10.5A10.5,10.5,0,0,1,610.492,537Zm23,0a10.5,10.5,0,1,1-10.5,10.5A10.5,10.5,0,0,1,633.492,537Zm-253,23a10.5,10.5,0,1,1-10.5,10.5A10.5,10.5,0,0,1,380.492,560Zm23,0a10.5,10.5,0,1,1-10.5,10.5A10.5,10.5,0,0,1,403.492,560Zm46,0a10.5,10.5,0,1,1-10.5,10.5A10.5,10.5,0,0,1,449.492,560Zm46,0a10.5,10.5,0,1,1-10.5,10.5A10.5,10.5,0,0,1,495.492,560Zm23,0a10.5,10.5,0,1,1-10.5,10.5A10.5,10.5,0,0,1,518.492,560Zm92,0a10.5,10.5,0,1,1-10.5,10.5A10.5,10.5,0,0,1,610.492,560Zm-207,23a10.5,10.5,0,1,1-10.5,10.5A10.5,10.5,0,0,1,403.492,583Zm23,0a10.5,10.5,0,1,1-10.5,10.5A10.5,10.5,0,0,1,426.492,583Zm23,0a10.5,10.5,0,1,1-10.5,10.5A10.5,10.5,0,0,1,449.492,583Zm115,0a10.5,10.5,0,1,1-10.5,10.5A10.5,10.5,0,0,1,564.492,583Zm46,0a10.5,10.5,0,1,1-10.5,10.5A10.5,10.5,0,0,1,610.492,583Zm-230,23a10.5,10.5,0,1,1-10.5,10.5A10.5,10.5,0,0,1,380.492,606Zm23,0a10.5,10.5,0,1,1-10.5,10.5A10.5,10.5,0,0,1,403.492,606Zm46,0a10.5,10.5,0,1,1-10.5,10.5A10.5,10.5,0,0,1,449.492,606Zm23,0a10.5,10.5,0,1,1-10.5,10.5A10.5,10.5,0,0,1,472.492,606Zm23,0a10.5,10.5,0,1,1-10.5,10.5A10.5,10.5,0,0,1,495.492,606Zm23,0a10.5,10.5,0,1,1-10.5,10.5A10.5,10.5,0,0,1,518.492,606Zm46,0a10.5,10.5,0,1,1-10.5,10.5A10.5,10.5,0,0,1,564.492,606Zm23,0a10.5,10.5,0,1,1-10.5,10.5A10.5,10.5,0,0,1,587.492,606Zm23,0a10.5,10.5,0,1,1-10.5,10.5A10.5,10.5,0,0,1,610.492,606Zm23,0a10.5,10.5,0,1,1-10.5,10.5A10.5,10.5,0,0,1,633.492,606Zm-184,23a10.5,10.5,0,1,1-10.5,10.5A10.5,10.5,0,0,1,449.492,629Zm23,0a10.5,10.5,0,1,1-10.5,10.5A10.5,10.5,0,0,1,472.492,629Zm46,0a10.5,10.5,0,1,1-10.5,10.5A10.5,10.5,0,0,1,518.492,629Zm69,0a10.5,10.5,0,1,1-10.5,10.5A10.5,10.5,0,0,1,587.492,629Zm46,0a10.5,10.5,0,1,1-10.5,10.5A10.5,10.5,0,0,1,633.492,629Zm-230,23a10.5,10.5,0,1,1-10.5,10.5A10.5,10.5,0,0,1,403.492,652Zm23,0a10.5,10.5,0,1,1-10.5,10.5A10.5,10.5,0,0,1,426.492,652Zm46,0a10.5,10.5,0,1,1-10.5,10.5A10.5,10.5,0,0,1,472.492,652Zm46,0a10.5,10.5,0,1,1-10.5,10.5A10.5,10.5,0,0,1,518.492,652Zm69,0a10.5,10.5,0,1,1-10.5,10.5A10.5,10.5,0,0,1,587.492,652Zm46,0a10.5,10.5,0,1,1-10.5,10.5A10.5,10.5,0,0,1,633.492,652Zm-253,23a10.5,10.5,0,1,1-10.5,10.5A10.5,10.5,0,0,1,380.492,675Zm138,0a10.5,10.5,0,1,1-10.5,10.5A10.5,10.5,0,0,1,518.492,675Zm23,0a10.5,10.5,0,1,1-10.5,10.5A10.5,10.5,0,0,1,541.492,675Zm69,0a10.5,10.5,0,1,1-10.5,10.5A10.5,10.5,0,0,1,610.492,675Zm23,0a10.5,10.5,0,1,1-10.5,10.5A10.5,10.5,0,0,1,633.492,675Zm-253,23a10.5,10.5,0,1,1-10.5,10.5A10.5,10.5,0,0,1,380.492,698Zm23,0a10.5,10.5,0,1,1-10.5,10.5A10.5,10.5,0,0,1,403.492,698Zm115,0a10.5,10.5,0,1,1-10.5,10.5A10.5,10.5,0,0,1,518.492,698Zm69,0a10.5,10.5,0,1,1-10.5,10.5A10.5,10.5,0,0,1,587.492,698Zm23,0a10.5,10.5,0,1,1-10.5,10.5A10.5,10.5,0,0,1,610.492,698Zm23,0a10.5,10.5,0,1,1-10.5,10.5A10.5,10.5,0,0,1,633.492,698Zm-253,23a10.5,10.5,0,1,1-10.5,10.5A10.5,10.5,0,0,1,380.492,721Zm23,0a10.5,10.5,0,1,1-10.5,10.5A10.5,10.5,0,0,1,403.492,721Zm23,0a10.5,10.5,0,1,1-10.5,10.5A10.5,10.5,0,0,1,426.492,721Zm46,0a10.5,10.5,0,1,1-10.5,10.5A10.5,10.5,0,0,1,472.492,721Zm92,0a10.5,10.5,0,1,1-10.5,10.5A10.5,10.5,0,0,1,564.492,721Zm46,0a10.5,10.5,0,1,1-10.5,10.5A10.5,10.5,0,0,1,610.492,721Zm23,0a10.5,10.5,0,1,1-10.5,10.5A10.5,10.5,0,0,1,633.492,721Zm-253,23a10.5,10.5,0,1,1-10.5,10.5A10.5,10.5,0,0,1,380.492,744Zm46,0a10.5,10.5,0,1,1-10.5,10.5A10.5,10.5,0,0,1,426.492,744Zm23,0a10.5,10.5,0,1,1-10.5,10.5A10.5,10.5,0,0,1,449.492,744Zm23,0a10.5,10.5,0,1,1-10.5,10.5A10.5,10.5,0,0,1,472.492,744Zm46,0a10.5,10.5,0,1,1-10.5,10.5A10.5,10.5,0,0,1,518.492,744Zm69,0a10.5,10.5,0,1,1-10.5,10.5A10.5,10.5,0,0,1,587.492,744Zm23,0a10.5,10.5,0,1,1-10.5,10.5A10.5,10.5,0,0,1,610.492,744Zm23,0a10.5,10.5,0,1,1-10.5,10.5A10.5,10.5,0,0,1,633.492,744Zm-253,23a10.5,10.5,0,1,1-10.5,10.5A10.5,10.5,0,0,1,380.492,767Zm46,0a10.5,10.5,0,1,1-10.5,10.5A10.5,10.5,0,0,1,426.492,767Zm69,0a10.5,10.5,0,1,1-10.5,10.5A10.5,10.5,0,0,1,495.492,767Zm23,0a10.5,10.5,0,1,1-10.5,10.5A10.5,10.5,0,0,1,518.492,767Zm69,0a10.5,10.5,0,1,1-10.5,10.5A10.5,10.5,0,0,1,587.492,767Zm46,0a10.5,10.5,0,1,1-10.5,10.5A10.5,10.5,0,0,1,633.492,767Zm-253,23a10.5,10.5,0,1,1-10.5,10.5A10.5,10.5,0,0,1,380.492,790Zm23,0a10.5,10.5,0,1,1-10.5,10.5A10.5,10.5,0,0,1,403.492,790Zm23,0a10.5,10.5,0,1,1-10.5,10.5A10.5,10.5,0,0,1,426.492,790Zm23,0a10.5,10.5,0,1,1-10.5,10.5A10.5,10.5,0,0,1,449.492,790Zm46,0a10.5,10.5,0,1,1-10.5,10.5A10.5,10.5,0,0,1,495.492,790Zm46,0a10.5,10.5,0,1,1-10.5,10.5A10.5,10.5,0,0,1,541.492,790Zm46,0a10.5,10.5,0,1,1-10.5,10.5A10.5,10.5,0,0,1,587.492,790Zm-207,23a10.5,10.5,0,1,1-10.5,10.5A10.5,10.5,0,0,1,380.492,813Zm69,0a10.5,10.5,0,1,1-10.5,10.5A10.5,10.5,0,0,1,449.492,813Zm23,0a10.5,10.5,0,1,1-10.5,10.5A10.5,10.5,0,0,1,472.492,813Zm69,0a10.5,10.5,0,1,1-10.5,10.5A10.5,10.5,0,0,1,541.492,813Zm23,0a10.5,10.5,0,1,1-10.5,10.5A10.5,10.5,0,0,1,564.492,813Zm46,0a10.5,10.5,0,1,1-10.5,10.5A10.5,10.5,0,0,1,610.492,813Zm23,0a10.5,10.5,0,1,1-10.5,10.5A10.5,10.5,0,0,1,633.492,813Zm-276-529a10.5,10.5,0,1,1-10.5,10.5A10.5,10.5,0,0,1,357.492,284Zm0,23a10.5,10.5,0,1,1-10.5,10.5A10.5,10.5,0,0,1,357.492,307Zm0,23a10.5,10.5,0,1,1-10.5,10.5A10.5,10.5,0,0,1,357.492,330Zm-92,23a10.5,10.5,0,1,1-10.5,10.5A10.5,10.5,0,0,1,265.492,353Zm23,0a10.5,10.5,0,1,1-10.5,10.5A10.5,10.5,0,0,1,288.492,353Zm23,0a10.5,10.5,0,1,1-10.5,10.5A10.5,10.5,0,0,1,311.492,353Zm23,0a10.5,10.5,0,1,1-10.5,10.5A10.5,10.5,0,0,1,334.492,353Zm-115,23a10.5,10.5,0,1,1-10.5,10.5A10.5,10.5,0,0,1,219.492,376Zm69,0a10.5,10.5,0,1,1-10.5,10.5A10.5,10.5,0,0,1,288.492,376Zm-92,23a10.5,10.5,0,1,1-10.5,10.5A10.5,10.5,0,0,1,196.492,399Zm115,0a10.5,10.5,0,1,1-10.5,10.5A10.5,10.5,0,0,1,311.492,399Zm23,0a10.5,10.5,0,1,1-10.5,10.5A10.5,10.5,0,0,1,334.492,399Zm-115,23a10.5,10.5,0,1,1-10.5,10.5A10.5,10.5,0,0,1,219.492,422Zm46,0a10.5,10.5,0,1,1-10.5,10.5A10.5,10.5,0,0,1,265.492,422Zm23,0a10.5,10.5,0,1,1-10.5,10.5A10.5,10.5,0,0,1,288.492,422Zm46,0a10.5,10.5,0,1,1-10.5,10.5A10.5,10.5,0,0,1,334.492,422Zm23,0a10.5,10.5,0,1,1-10.5,10.5A10.5,10.5,0,0,1,357.492,422Zm-161,23a10.5,10.5,0,1,1-10.5,10.5A10.5,10.5,0,0,1,196.492,445Zm23,0a10.5,10.5,0,1,1-10.5,10.5A10.5,10.5,0,0,1,219.492,445Zm23,0a10.5,10.5,0,1,1-10.5,10.5A10.5,10.5,0,0,1,242.492,445Zm23,0a10.5,10.5,0,1,1-10.5,10.5A10.5,10.5,0,0,1,265.492,445Zm46,0a10.5,10.5,0,1,1-10.5,10.5A10.5,10.5,0,0,1,311.492,445Zm23,0a10.5,10.5,0,1,1-10.5,10.5A10.5,10.5,0,0,1,334.492,445Zm23,0a10.5,10.5,0,1,1-10.5,10.5A10.5,10.5,0,0,1,357.492,445Zm-184,23a10.5,10.5,0,1,1-10.5,10.5A10.5,10.5,0,0,1,173.492,468Zm46,0a10.5,10.5,0,1,1-10.5,10.5A10.5,10.5,0,0,1,219.492,468Zm23,0a10.5,10.5,0,1,1-10.5,10.5A10.5,10.5,0,0,1,242.492,468Zm23,0a10.5,10.5,0,1,1-10.5,10.5A10.5,10.5,0,0,1,265.492,468Zm23,0a10.5,10.5,0,1,1-10.5,10.5A10.5,10.5,0,0,1,288.492,468Zm46,0a10.5,10.5,0,1,1-10.5,10.5A10.5,10.5,0,0,1,334.492,468Zm-161,23a10.5,10.5,0,1,1-10.5,10.5A10.5,10.5,0,0,1,173.492,491Zm23,0a10.5,10.5,0,1,1-10.5,10.5A10.5,10.5,0,0,1,196.492,491Zm46,0a10.5,10.5,0,1,1-10.5,10.5A10.5,10.5,0,0,1,242.492,491Zm46,0a10.5,10.5,0,1,1-10.5,10.5A10.5,10.5,0,0,1,288.492,491Zm23,0a10.5,10.5,0,1,1-10.5,10.5A10.5,10.5,0,0,1,311.492,491Zm23,0a10.5,10.5,0,1,1-10.5,10.5A10.5,10.5,0,0,1,334.492,491Zm23,0a10.5,10.5,0,1,1-10.5,10.5A10.5,10.5,0,0,1,357.492,491Zm-184,23a10.5,10.5,0,1,1-10.5,10.5A10.5,10.5,0,0,1,173.492,514Zm46,0a10.5,10.5,0,1,1-10.5,10.5A10.5,10.5,0,0,1,219.492,514Zm23,0a10.5,10.5,0,1,1-10.5,10.5A10.5,10.5,0,0,1,242.492,514Zm23,0a10.5,10.5,0,1,1-10.5,10.5A10.5,10.5,0,0,1,265.492,514Zm23,0a10.5,10.5,0,1,1-10.5,10.5A10.5,10.5,0,0,1,288.492,514Zm46,0a10.5,10.5,0,1,1-10.5,10.5A10.5,10.5,0,0,1,334.492,514Zm-92,23a10.5,10.5,0,1,1-10.5,10.5A10.5,10.5,0,0,1,242.492,537Zm23,0a10.5,10.5,0,1,1-10.5,10.5A10.5,10.5,0,0,1,265.492,537Zm23,0a10.5,10.5,0,1,1-10.5,10.5A10.5,10.5,0,0,1,288.492,537Zm23,0a10.5,10.5,0,1,1-10.5,10.5A10.5,10.5,0,0,1,311.492,537Zm-138,23a10.5,10.5,0,1,1-10.5,10.5A10.5,10.5,0,0,1,173.492,560Zm23,0a10.5,10.5,0,1,1-10.5,10.5A10.5,10.5,0,0,1,196.492,560Zm23,0a10.5,10.5,0,1,1-10.5,10.5A10.5,10.5,0,0,1,219.492,560Zm23,0a10.5,10.5,0,1,1-10.5,10.5A10.5,10.5,0,0,1,242.492,560Zm92,0a10.5,10.5,0,1,1-10.5,10.5A10.5,10.5,0,0,1,334.492,560Zm23,0a10.5,10.5,0,1,1-10.5,10.5A10.5,10.5,0,0,1,357.492,560Zm-138,23a10.5,10.5,0,1,1-10.5,10.5A10.5,10.5,0,0,1,219.492,583Zm23,0a10.5,10.5,0,1,1-10.5,10.5A10.5,10.5,0,0,1,242.492,583Zm23,0a10.5,10.5,0,1,1-10.5,10.5A10.5,10.5,0,0,1,265.492,583Zm46,0a10.5,10.5,0,1,1-10.5,10.5A10.5,10.5,0,0,1,311.492,583Zm23,0a10.5,10.5,0,1,1-10.5,10.5A10.5,10.5,0,0,1,334.492,583Zm-46,23a10.5,10.5,0,1,1-10.5,10.5A10.5,10.5,0,0,1,288.492,606Zm46,0a10.5,10.5,0,1,1-10.5,10.5A10.5,10.5,0,0,1,334.492,606Zm23,0a10.5,10.5,0,1,1-10.5,10.5A10.5,10.5,0,0,1,357.492,606Zm-184,23a10.5,10.5,0,1,1-10.5,10.5A10.5,10.5,0,0,1,173.492,629Zm23,0a10.5,10.5,0,1,1-10.5,10.5A10.5,10.5,0,0,1,196.492,629Zm69,0a10.5,10.5,0,1,1-10.5,10.5A10.5,10.5,0,0,1,265.492,629Zm46,0a10.5,10.5,0,1,1-10.5,10.5A10.5,10.5,0,0,1,311.492,629Zm23,0a10.5,10.5,0,1,1-10.5,10.5A10.5,10.5,0,0,1,334.492,629Zm23,23a10.5,10.5,0,1,1-10.5,10.5A10.5,10.5,0,0,1,357.492,652Zm0,23a10.5,10.5,0,1,1-10.5,10.5A10.5,10.5,0,0,1,357.492,675Zm0,23a10.5,10.5,0,1,1-10.5,10.5A10.5,10.5,0,0,1,357.492,698Zm0,23a10.5,10.5,0,1,1-10.5,10.5A10.5,10.5,0,0,1,357.492,721Zm322-368a10.5,10.5,0,1,1-10.5,10.5A10.5,10.5,0,0,1,679.492,353Zm23,0a10.5,10.5,0,1,1-10.5,10.5A10.5,10.5,0,0,1,702.492,353Zm92,0a10.5,10.5,0,1,1-10.5,10.5A10.5,10.5,0,0,1,794.492,353Zm-115,23a10.5,10.5,0,1,1-10.5,10.5A10.5,10.5,0,0,1,679.492,376Zm23,0a10.5,10.5,0,1,1-10.5,10.5A10.5,10.5,0,0,1,702.492,376Zm23,0a10.5,10.5,0,1,1-10.5,10.5A10.5,10.5,0,0,1,725.492,376Zm69,0a10.5,10.5,0,1,1-10.5,10.5A10.5,10.5,0,0,1,794.492,376Zm23,0a10.5,10.5,0,1,1-10.5,10.5A10.5,10.5,0,0,1,817.492,376Zm-46,23a10.5,10.5,0,1,1-10.5,10.5A10.5,10.5,0,0,1,771.492,399Zm46,0a10.5,10.5,0,1,1-10.5,10.5A10.5,10.5,0,0,1,817.492,399Zm-115,23a10.5,10.5,0,1,1-10.5,10.5A10.5,10.5,0,0,1,702.492,422Zm23,0a10.5,10.5,0,1,1-10.5,10.5A10.5,10.5,0,0,1,725.492,422Zm23,0a10.5,10.5,0,1,1-10.5,10.5A10.5,10.5,0,0,1,748.492,422Zm46,0a10.5,10.5,0,1,1-10.5,10.5A10.5,10.5,0,0,1,794.492,422Zm23,0a10.5,10.5,0,1,1-10.5,10.5A10.5,10.5,0,0,1,817.492,422Zm-69,23a10.5,10.5,0,1,1-10.5,10.5A10.5,10.5,0,0,1,748.492,445Zm69,0a10.5,10.5,0,1,1-10.5,10.5A10.5,10.5,0,0,1,817.492,445Zm-138,23a10.5,10.5,0,1,1-10.5,10.5A10.5,10.5,0,0,1,679.492,468Zm46,0a10.5,10.5,0,1,1-10.5,10.5A10.5,10.5,0,0,1,725.492,468Zm46,0a10.5,10.5,0,1,1-10.5,10.5A10.5,10.5,0,0,1,771.492,468Zm46,0a10.5,10.5,0,1,1-10.5,10.5A10.5,10.5,0,0,1,817.492,468Zm-115,23a10.5,10.5,0,1,1-10.5,10.5A10.5,10.5,0,0,1,702.492,491Zm23,0a10.5,10.5,0,1,1-10.5,10.5A10.5,10.5,0,0,1,725.492,491Zm69,0a10.5,10.5,0,1,1-10.5,10.5A10.5,10.5,0,0,1,794.492,491Zm23,0a10.5,10.5,0,1,1-10.5,10.5A10.5,10.5,0,0,1,817.492,491Zm-161,23a10.5,10.5,0,1,1-10.5,10.5A10.5,10.5,0,0,1,656.492,514Zm46,0a10.5,10.5,0,1,1-10.5,10.5A10.5,10.5,0,0,1,702.492,514Zm23,0a10.5,10.5,0,1,1-10.5,10.5A10.5,10.5,0,0,1,725.492,514Zm23,0a10.5,10.5,0,1,1-10.5,10.5A10.5,10.5,0,0,1,748.492,514Zm69,0a10.5,10.5,0,1,1-10.5,10.5A10.5,10.5,0,0,1,817.492,514Zm-161,23a10.5,10.5,0,1,1-10.5,10.5A10.5,10.5,0,0,1,656.492,537Zm138,0a10.5,10.5,0,1,1-10.5,10.5A10.5,10.5,0,0,1,794.492,537Zm-115,23a10.5,10.5,0,1,1-10.5,10.5A10.5,10.5,0,0,1,679.492,560Zm23,0a10.5,10.5,0,1,1-10.5,10.5A10.5,10.5,0,0,1,702.492,560Zm23,0a10.5,10.5,0,1,1-10.5,10.5A10.5,10.5,0,0,1,725.492,560Zm92,0a10.5,10.5,0,1,1-10.5,10.5A10.5,10.5,0,0,1,817.492,560Zm-115,23a10.5,10.5,0,1,1-10.5,10.5A10.5,10.5,0,0,1,702.492,583Zm46,0a10.5,10.5,0,1,1-10.5,10.5A10.5,10.5,0,0,1,748.492,583Zm23,0a10.5,10.5,0,1,1-10.5,10.5A10.5,10.5,0,0,1,771.492,583Zm46,0a10.5,10.5,0,1,1-10.5,10.5A10.5,10.5,0,0,1,817.492,583Zm-92,23a10.5,10.5,0,1,1-10.5,10.5A10.5,10.5,0,0,1,725.492,606Zm23,0a10.5,10.5,0,1,1-10.5,10.5A10.5,10.5,0,0,1,748.492,606Zm46,0a10.5,10.5,0,1,1-10.5,10.5A10.5,10.5,0,0,1,794.492,606Zm23,0a10.5,10.5,0,1,1-10.5,10.5A10.5,10.5,0,0,1,817.492,606Zm-161,23a10.5,10.5,0,1,1-10.5,10.5A10.5,10.5,0,0,1,656.492,629Zm23,0a10.5,10.5,0,1,1-10.5,10.5A10.5,10.5,0,0,1,679.492,629Zm23,0a10.5,10.5,0,1,1-10.5,10.5A10.5,10.5,0,0,1,702.492,629Zm23,0a10.5,10.5,0,1,1-10.5,10.5A10.5,10.5,0,0,1,725.492,629Zm23,0a10.5,10.5,0,1,1-10.5,10.5A10.5,10.5,0,0,1,748.492,629Zm46,0a10.5,10.5,0,1,1-10.5,10.5A10.5,10.5,0,0,1,794.492,629Zm-69,23a10.5,10.5,0,1,1-10.5,10.5A10.5,10.5,0,0,1,725.492,652Zm46,0a10.5,10.5,0,1,1-10.5,10.5A10.5,10.5,0,0,1,771.492,652Zm46,0a10.5,10.5,0,1,1-10.5,10.5A10.5,10.5,0,0,1,817.492,652Zm-138,23a10.5,10.5,0,1,1-10.5,10.5A10.5,10.5,0,0,1,679.492,675Zm46,0a10.5,10.5,0,1,1-10.5,10.5A10.5,10.5,0,0,1,725.492,675Zm92,0a10.5,10.5,0,1,1-10.5,10.5A10.5,10.5,0,0,1,817.492,675Zm-92,23a10.5,10.5,0,1,1-10.5,10.5A10.5,10.5,0,0,1,725.492,698Zm23,0a10.5,10.5,0,1,1-10.5,10.5A10.5,10.5,0,0,1,748.492,698Zm-92,23a10.5,10.5,0,1,1-10.5,10.5A10.5,10.5,0,0,1,656.492,721Zm23,0a10.5,10.5,0,1,1-10.5,10.5A10.5,10.5,0,0,1,679.492,721Zm23,0a10.5,10.5,0,1,1-10.5,10.5A10.5,10.5,0,0,1,702.492,721Zm23,0a10.5,10.5,0,1,1-10.5,10.5A10.5,10.5,0,0,1,725.492,721Zm92,0a10.5,10.5,0,1,1-10.5,10.5A10.5,10.5,0,0,1,817.492,721Zm-161,23a10.5,10.5,0,1,1-10.5,10.5A10.5,10.5,0,0,1,656.492,744Zm46,0a10.5,10.5,0,1,1-10.5,10.5A10.5,10.5,0,0,1,702.492,744Zm92,0a10.5,10.5,0,1,1-10.5,10.5A10.5,10.5,0,0,1,794.492,744Zm-92,23a10.5,10.5,0,1,1-10.5,10.5A10.5,10.5,0,0,1,702.492,767Zm69,0a10.5,10.5,0,1,1-10.5,10.5A10.5,10.5,0,0,1,771.492,767Zm23,0a10.5,10.5,0,1,1-10.5,10.5A10.5,10.5,0,0,1,794.492,767Zm23,0a10.5,10.5,0,1,1-10.5,10.5A10.5,10.5,0,0,1,817.492,767Zm-138,23a10.5,10.5,0,1,1-10.5,10.5A10.5,10.5,0,0,1,679.492,790Zm23,0a10.5,10.5,0,1,1-10.5,10.5A10.5,10.5,0,0,1,702.492,790Zm46,0a10.5,10.5,0,1,1-10.5,10.5A10.5,10.5,0,0,1,748.492,790Zm46,0a10.5,10.5,0,1,1-10.5,10.5A10.5,10.5,0,0,1,794.492,790Zm23,0a10.5,10.5,0,1,1-10.5,10.5A10.5,10.5,0,0,1,817.492,790Zm-161,23a10.5,10.5,0,1,1-10.5,10.5A10.5,10.5,0,0,1,656.492,813Zm69,0a10.5,10.5,0,1,1-10.5,10.5A10.5,10.5,0,0,1,725.492,813Zm23,0a10.5,10.5,0,1,1-10.5,10.5A10.5,10.5,0,0,1,748.492,813Zm46,0a10.5,10.5,0,1,1-10.5,10.5A10.5,10.5,0,0,1,794.492,813ZM248.5,327A78.5,78.5,0,1,1,327,248.5,78.5,78.5,0,0,1,248.5,327Zm0-136A57.5,57.5,0,1,0,306,248.5,57.5,57.5,0,0,0,248.5,191Zm0,91A33.5,33.5,0,1,1,282,248.5,33.5,33.5,0,0,1,248.5,282Zm501,45A78.5,78.5,0,1,1,828,248.5,78.5,78.5,0,0,1,749.5,327Zm0-136A57.5,57.5,0,1,0,807,248.5,57.5,57.5,0,0,0,749.5,191Zm0,91A33.5,33.5,0,1,1,783,248.5,33.5,33.5,0,0,1,749.5,282Zm-501,551A78.5,78.5,0,1,1,327,754.5,78.5,78.5,0,0,1,248.5,833Zm0-136A57.5,57.5,0,1,0,306,754.5,57.5,57.5,0,0,0,248.5,697Zm0,91A33.5,33.5,0,1,1,282,754.5,33.5,33.5,0,0,1,248.5,788Z"/>
  <path id="QR_code_a" data-name="QR code a" class="cls-3" d="M818,69V21.032L950.225,153.257l-48.868,48.867L768.233,69H818ZM182.219,931.056V979L49.994,846.843,98.861,798,231.986,931.056H182.219Z"/>
</svg>
