<svg xmlns="http://www.w3.org/2000/svg" width="800" height="800" viewBox="0 0 800 800">
  <defs>
    <style>
      .cls-1 {
        fill: #00c1b5;
      }

      .cls-2 {
        fill: #fff;
      }

      .cls-2, .cls-3 {
        fill-rule: evenodd;
      }

      .cls-3 {
        fill: #8cf3e4;
      }
    </style>
  </defs>
  <rect id="Base_color" data-name="Base color" class="cls-1" width="800" height="800" rx="217.6" ry="217.6"/>
  <path id="white_wood_city" data-name="white wood city" class="cls-2" d="M696.8,427.2H654.4V524h20.8V448H696v96H654.4v55.84L757.016,712.257a218.835,218.835,0,0,1-15.377,18.421L628.2,606.4H628V544h-7.2V524H628V427.2H572.8v21.6h40V606.4H586.4V468.8H572.8V606.4H552V551.539l-246.4,58.9v-22.62l151.593-36.239-71.593-85.3V558.4l-26.4,8.8V442.189L255.414,516.843,249.6,516.8H80.8v69.6H228V544.8h26.4v61.6H54.4V516.8H0v-20H54.4V407.2h90.4V378.4h26.4v28.8h83.2v66.4H228V427.2H80.8v69.6H242.123l95.98-69.6H269.6v-20h89.6V378.4h26.4v28.8h89.6v20H389.837l97.885,117.067-0.033.026L500,541.35V427.2H484.8v-20H500V378.4h26.4v28.8h11.2v20H526.4V535.039l25.6-6.12V407.2h76V378.4h26.4v28.8H676V393.13l-11.2-1.28V378.4h32v28.8H800v20H696.8Zm10.347-136.962C645.008,290.238,432,290.4,432,290.4L431.28,160H431.2V132h7.2v13.582l208.973-.51v-10.51h10.509s-0.8,16.425-.8,29.559,23.163,30.872,65.83,30.872c0,0,.426,16.422-40.726,16.422V241.63s34.791,28.9,66.714,28.9c29.2,0,31-2.2,31.1-2.572l-0.8,11.112S769.286,290.238,707.147,290.238ZM367.2,290.4s-212.993-.162-275.127-0.162-72.048-11.166-72.048-11.166l-0.8-11.112c0.1,0.375,1.9,2.572,31.094,2.572,31.921,0,66.709-28.9,66.709-28.9V211.415c-41.149,0-40.723-16.422-40.723-16.422,42.664,0,65.825-17.739,65.825-30.872s-0.8-29.559-.8-29.559h10.509v10.51l208.957,0.51V132H368v28h-0.08ZM49.612,624.437h9.56l4.918,23.052c0.6,2.919,1.174,5.837,1.7,8.644,0.625-2.813,1.321-5.731,2.025-8.77l5.63-22.926H84.152l5.177,23.052c0.583,2.7,1.148,5.376,1.66,8.035,0.538-2.692,1.121-5.406,1.741-8.225l5.307-22.862h10.837L96.189,672.885H85.158l-5.371-23.369c-0.564-2.458-1.058-4.764-1.492-7.022-0.5,2.231-1.071,4.53-1.714,7.022l-5.889,23.369H59.6L48.012,624.437h1.6Zm63.678-.063H122.4v20.012h16.991V624.374H150.1v48.511H139.388V650.846H122.4v22.039H111.69V624.374h1.6Zm45.494,0.063h9.107v48.448H157.184V624.437h1.6Zm13.007,0h35.834v6.27h-13.4v42.178H183.522V630.707H170.191v-6.27h1.6Zm39.8,0h27.486v6.143H220.7v14H238.04v6.08H220.7v16.086h19.479v6.143H209.989V624.437h1.6Zm45.905,0h9.56l4.919,23.052c0.6,2.919,1.174,5.837,1.7,8.644,0.625-2.813,1.321-5.731,2.025-8.77l5.63-22.926h10.707l5.177,23.052c0.583,2.7,1.148,5.376,1.661,8.035,0.538-2.692,1.121-5.406,1.74-8.225l5.307-22.862h10.836l-12.684,48.448h-11.03l-5.372-23.369c-0.564-2.458-1.057-4.764-1.492-7.022-0.5,2.231-1.071,4.53-1.714,7.022l-5.89,23.369H267.478l-11.584-48.448h1.6ZM339.913,624c0.267,0,.528.011,0.791,0.019,0.269-.008.536-0.019,0.809-0.019h0c0.267,0,.528.011,0.791,0.019,0.269-.008.537-0.019,0.809-0.019,14.052,0,22.082,10.514,22.082,24.364,0,16.747-9.9,25.246-22.774,25.246-0.348,0-.69-0.011-1.031-0.024-0.191,0-.377.024-0.569,0.024h0c-0.347,0-.689-0.011-1.03-0.024-0.191,0-.377.024-0.57,0.024-13.5,0-22.151-9.947-22.151-24.49C317.069,633.945,326.345,624,339.913,624Zm1.022,43.507c8.315-.872,12.615-9.183,12.615-18.891,0-8.7-3.983-17.6-12.448-18.529-8.544,1.061-12.388,9.979-12.388,18.844C328.714,658.038,332.94,666.429,340.935,667.505ZM396.394,624c0.267,0,.528.011,0.791,0.019,0.269-.008.537-0.019,0.809-0.019h0c0.267,0,.528.011,0.791,0.019,0.269-.008.537-0.019,0.809-0.019,14.052,0,22.082,10.514,22.082,24.364,0,16.747-9.9,25.246-22.774,25.246-0.347,0-.689-0.011-1.03-0.024-0.192,0-.377.024-0.57,0.024h0c-0.348,0-.69-0.011-1.03-0.024-0.192,0-.377.024-0.57,0.024-13.5,0-22.152-9.947-22.152-24.49C373.55,633.945,382.826,624,396.394,624Zm1.022,43.507c8.316-.872,12.615-9.183,12.615-18.891,0-8.7-3.983-17.6-12.448-18.529-8.544,1.061-12.387,9.979-12.387,18.844C385.2,658.038,389.421,666.429,397.416,667.505Zm45.8-43.119c0.332,0,.661-0.01,1-0.01h0c0.207,0,.4.008,0.6,0.01,0.332,0,.661-0.01,1-0.01,22.567,0,27.274,12.654,27.274,23.357V647.8c0,8.751-2.977,15.109-7.615,19.2-4.776,4.218-12.321,6.358-21.667,6.358-0.464,0-.914,0-1.361-0.007-0.081,0-.157.007-0.239,0.007h0c-0.465,0-.914,0-1.361-0.007-0.081,0-.157.007-0.239,0.007a94.474,94.474,0,0,1-11.491-.566V625.383a93.3,93.3,0,0,1,13.5-1.007C442.818,624.376,443.012,624.384,443.216,624.386Zm-2.874,42.863c0.84,0.115,1.892.179,3,.215,11.291-.3,18.1-6.645,18.1-19.542,0-11.3-6.212-17.3-16.912-17.7a32.284,32.284,0,0,0-4.185.453v36.578Zm82-43.241c0.343,0,.651.015,0.981,0.022,0.208,0,.409-0.022.619-0.022h0c0.344,0,.651.015,0.981,0.022,0.208,0,.41-0.022.619-0.022,6.662,0,10.751,1.2,12.341,1.89l-1.893,7.7c-0.448-.175-0.941-0.378-1.456-0.587l-0.144.587a46.15,46.15,0,0,0-5.546-2,29.926,29.926,0,0,0-4.668-.566c-10.35.526-17.864,6.029-17.864,17.938,0,11.273,6.725,17.025,17.68,17.558a35.939,35.939,0,0,0,3.753-.346,38.461,38.461,0,0,0,6.8-2.158l0.116,0.58c0.532-.2,1.039-0.4,1.484-0.58l1.514,7.571c-2.422,1.009-7.344,2.017-13.627,2.017-0.2,0-.383-0.017-0.578-0.02-0.342.006-.672,0.02-1.022,0.02h0c-0.2,0-.382-0.017-0.577-0.02-0.342.006-.672,0.02-1.023,0.02-16.126,0-26.952-8.886-26.952-24.264C493.876,632.957,506.292,624.008,522.343,624.008Zm20.713,0.429h9.107v48.448H541.456V624.437h1.6Zm13.007,0h45.411L607.3,637.1c1.007,2.207,1.931,4.22,2.8,6.248,0.864-2.019,1.8-4.093,2.8-6.311l5.889-12.6H630.4l-15.338,27.992v20.456H604.357V652.619L591.9,628.505v2.2H578.5v42.178H567.795V630.707H554.463v-6.27h1.6Z"/>
  <path id="top" class="cls-3" d="M610.4,349.6h-420c-75.68,0-93.6-13.6-93.6-13.6V322.4s1.921,3.2,40.8,3.2,83.2-35.2,83.2-35.2V253.6c-50.119,0-49.6-20-49.6-20,51.964,0,79.2-24.1,79.2-37.6V160h12.8v12.8H537.6V160h12.8v36c0,13.5,27.236,37.6,79.2,37.6,0,0,.519,20-49.6,20v36.8s44.321,35.2,83.2,35.2,40.8-3.2,40.8-3.2V336S686.08,349.6,610.4,349.6Z"/>
</svg>
