<?xml version="1.0" encoding="utf-8"?>
<!-- Generator: Adobe Illustrator 23.0.2, SVG Export Plug-In . SVG Version: 6.00 Build 0)  -->
<svg version="1.1" id="图层_1" xmlns="http://www.w3.org/2000/svg" xmlns:xlink="http://www.w3.org/1999/xlink" x="0px" y="0px"
	 viewBox="0 0 24 24" style="enable-background:new 0 0 24 24;" xml:space="preserve">
<style type="text/css">
	.st0{fill-rule:evenodd;clip-rule:evenodd;fill:#FFFFFF;}
</style>
<path class="st0" d="M1.6,23.7l10.5-10.5l3.7,3.7L3.3,23.8c-0.5,0.3-1.1,0.3-1.5,0C1.8,23.8,1.6,23.7,1.6,23.7z M11,12.1l-10,10v-20
	C1,2.1,11,12.1,11,12.1z M17.3,8l4.9,2.7C22.7,11,23,11.5,23,12s-0.3,1-0.8,1.3l-5,2.8l-4-4C13.2,12.1,17.3,8,17.3,8z M1.5,0.4
	c0.1-0.1,0.2-0.2,0.3-0.2c0.5-0.3,1.1-0.3,1.5,0l12.7,7L12.1,11C12.1,11,1.5,0.4,1.5,0.4z"/>
</svg>
