<?xml version="1.0" encoding="UTF-8" standalone="no"?>
<!DOCTYPE svg PUBLIC "-//W3C//DTD SVG 1.1//EN" "http://www.w3.org/Graphics/SVG/1.1/DTD/svg11.dtd">
<svg version="1.1" xmlns="http://www.w3.org/2000/svg" xmlns:xlink="http://www.w3.org/1999/xlink" preserveAspectRatio="xMidYMid meet" viewBox="-1.0108373852906585 -1 524.0178647825509 108.00148290610647" width="520.02" height="104"><defs><path d="M67.94 91.13C66.01 92.84 63.98 94.43 61.86 95.9C59.55 97.49 57.1 98.87 54.54 100.02C51.73 101.28 48.79 102.25 45.78 102.92C42.35 103.66 38.85 104.03 35.35 104C18.83 104 12.01 93.33 9.42 92.14C0 80.28 0.94 59.98 0 56.41C-0.12 48.63 0.8 40.87 2.75 33.34C4.28 27.38 6.96 21.78 10.65 16.85C13.89 12.62 18.12 9.24 22.96 7.01C28 4.79 33.46 3.68 38.97 3.76C44.51 3.67 49.97 5.02 54.83 7.67C59.72 10.45 63.9 14.31 67.07 18.95C66.35 19.79 60.55 26.5 59.83 27.34C57.07 25.43 54.07 23.87 50.92 22.71C47.65 21.53 44.19 20.94 40.71 20.97C38.05 20.96 35.42 21.56 33.03 22.71C30.47 23.99 28.27 25.91 26.66 28.28C24.63 31.27 23.15 34.6 22.31 38.11C21.17 42.82 20.63 47.66 20.72 52.51C20.61 58.13 21.1 63.76 22.17 69.28C22.87 73.04 24.24 76.65 26.22 79.92C27.75 82.38 29.97 84.34 32.6 85.56C35.25 86.69 38.11 87.26 41 87.22C42.35 87.21 43.69 87.01 44.98 86.64C46.23 86.32 47.42 85.84 48.53 85.2C48.53 83.61 48.53 75.65 48.53 61.33L38.39 61.33L38.39 48.17L67.94 48.17C67.94 71.08 67.94 85.4 67.94 91.13ZM118.39 46.72C116.07 46 114.81 45.74 114.41 45.64C113.39 45.4 112.34 45.28 111.29 45.27C108.39 45.27 106.08 47.88 105.5 48.17C103.09 50.66 100.87 53.32 98.83 56.12C98.83 59.22 98.83 74.69 98.84 102.55L80.15 102.55L80.15 29.94L94.2 29.94C95.85 37.58 96.77 41.82 96.95 42.67C99.6 38.89 102.59 35.36 105.86 32.11C108.1 29.84 111.14 28.54 114.34 28.5C115.33 28.5 116.33 28.59 117.31 28.78C118.32 28.98 119.45 29.22 120.71 29.51C119.47 38.69 118.7 44.42 118.39 46.72ZM165.8 70.15C162.5 70.15 160.67 70.15 160.3 70.15C157.5 70.09 154.7 70.38 151.97 71.02C150.15 71.44 148.43 72.2 146.9 73.26C145.75 74.1 144.87 75.26 144.36 76.59C143.88 77.91 143.63 79.3 143.64 80.71C143.64 85.05 145.79 86.63 146.03 87.29C147.85 88.87 150.22 89.67 152.62 89.53C154.99 89.54 157.35 89.12 159.58 88.3C161.78 87.49 163.88 86.4 165.81 85.05C165.8 83.06 165.8 78.1 165.8 70.15ZM170.58 102.55C169.36 97.61 168.69 94.86 168.55 94.31C165.67 97.04 162.4 99.33 158.85 101.11C155.13 103.02 151 104.02 146.82 104C135.67 104 131.83 99.05 130.16 98.5C124.66 93 125.21 84.57 124.66 83.02C124.64 79.74 125.31 76.49 126.62 73.48C128.02 70.36 130.19 67.65 132.92 65.59C136.27 63.1 140.05 61.26 144.07 60.17C149.5 58.71 155.11 58.02 160.73 58.14C161.07 58.14 162.76 58.14 165.8 58.14C165.8 55.2 165.8 53.56 165.8 53.23C165.8 47.44 162.15 45.94 161.75 45.13C158.77 43.52 155.42 42.72 152.04 42.82C148.39 42.82 144.75 43.19 141.17 43.9C137.75 44.56 134.36 45.41 131.03 46.43C130.83 45.3 129.2 36.28 129 35.15C133.36 33.4 137.81 31.88 142.33 30.59C147.61 29.13 153.07 28.43 158.55 28.49C172.32 28.49 176.35 33.89 178.33 34.49C182.33 38.49 184.34 44.35 184.34 52.07L184.34 102.55L170.58 102.55ZM236.53 70.15C233.23 70.15 231.4 70.15 231.03 70.15C228.23 70.09 225.43 70.38 222.7 71.02C220.88 71.44 219.16 72.2 217.63 73.26C216.48 74.1 215.6 75.26 215.1 76.59C214.61 77.91 214.36 79.3 214.37 80.71C214.37 85.05 216.52 86.63 216.76 87.29C218.58 88.87 220.95 89.67 223.35 89.53C225.73 89.54 228.08 89.12 230.31 88.3C232.51 87.49 234.61 86.4 236.54 85.05C236.54 83.06 236.53 78.1 236.53 70.15ZM241.31 102.55C240.09 97.61 239.42 94.86 239.28 94.31C236.4 97.04 233.13 99.33 229.58 101.11C225.86 103.02 221.73 104.02 217.55 104C206.4 104 202.56 99.05 200.89 98.5C195.39 93 195.94 84.57 195.39 83.02C195.37 79.74 196.04 76.49 197.35 73.48C198.75 70.36 200.92 67.65 203.65 65.59C206.99 63.11 210.78 61.27 214.8 60.17C220.23 58.71 225.84 58.03 231.46 58.15C231.8 58.15 233.49 58.15 236.53 58.15C236.53 55.2 236.53 53.56 236.53 53.23C236.53 47.44 232.88 45.94 232.47 45.13C229.5 43.52 226.15 42.72 222.77 42.82C219.12 42.82 215.48 43.19 211.9 43.9C208.48 44.56 205.09 45.41 201.76 46.43C201.56 45.3 199.93 36.28 199.73 35.15C204.09 33.4 208.54 31.88 213.06 30.59C218.34 29.13 223.8 28.43 229.29 28.49C243.05 28.49 247.08 33.89 249.06 34.49C253.07 38.49 255.07 44.35 255.07 52.07L255.07 102.55L241.31 102.55ZM299.58 101.83C297.37 102.5 295.12 103.03 292.85 103.42C290.48 103.82 288.08 104.01 285.68 104C278 104 275.44 101.01 274.3 100.67C271.83 98.46 270.6 94.26 270.61 88.09L270.61 0L289.15 0C289.15 48.95 289.15 76.14 289.15 81.58C289.15 87.51 290.19 88.48 290.31 89.25C291.17 90.45 292.6 91.11 294.07 90.98C294.28 90.98 295.9 90.98 296.1 90.98C296.93 90.98 297.75 90.93 298.57 90.84C298.77 93.04 299.38 99.63 299.58 101.83Z" id="a1aTu7lOU4"></path><path d="M379.44 4.92C373.94 29.65 368.16 49.31 366.91 54.24C362.22 70.63 357.22 86.74 351.91 102.55C336.96 102.55 328.66 102.55 327 102.55C318.88 78.11 313.44 58.68 311.93 53.81C307.3 37.61 303.09 21.31 299.33 4.92C312.63 4.92 320.01 4.92 321.49 4.92C323.09 13.6 324.88 21.32 325.26 23.14C327.43 32.69 329.43 40.72 329.9 42.67C332.36 52.65 334.59 60.83 335.11 62.85C337.86 73.05 340.2 80.75 340.76 82.74C343.22 74.49 345.26 66.79 345.76 65.02C348.3 55.54 350.32 47.44 350.83 45.49C353.37 35.44 355.13 27.14 355.61 25.1C357.11 18.2 358.48 11.48 359.74 4.92C370.24 4.92 376.81 4.92 379.44 4.92Z" id="a1DPhq2qg"></path><path d="M469.87 102.55C469.58 83.32 468.96 68.19 468.86 64.37C468.38 51.74 467.6 38.81 466.54 25.6L466.26 25.6L444.24 102.55L429.6 102.55L408.3 25.6C408.13 25.6 408.03 25.6 408.01 25.6C406.42 45.42 405.92 60.49 405.69 64.37C405.21 77 404.87 89.73 404.68 102.55C393.55 102.55 387.37 102.55 386.14 102.55C386.86 77.96 388.22 58.55 388.46 53.66C389.52 37.46 390.87 21.22 392.51 4.92L421.34 4.92L438.87 67.98L439.16 67.98L457.27 4.92C473.44 4.92 482.42 4.92 484.21 4.92C486.67 29.36 487.86 48.79 488.27 53.66C489.33 69.86 490.11 86.16 490.59 102.55C479.54 102.55 472.63 102.55 469.87 102.55Z" id="bK1ooNL9e"></path><path d="M501.96 93.12L501.96 101.92L498.58 101.92L498.58 93.12L496.39 93.12L496.39 90.24L504.15 90.24L504.15 93.12L501.96 93.12Z" id="c1hVAsYFJQ"></path><path d="M516.97 101.92C516.9 99.6 516.88 98.03 516.87 97.59C516.85 96.26 516.81 94.91 516.76 93.55L514.09 101.92L511.06 101.92C509.4 96.94 508.49 94.17 508.3 93.62C508.26 94.98 508.23 96.33 508.23 97.67L508.23 101.92C506.54 101.92 505.6 101.92 505.42 101.92C505.42 98.97 505.54 96.63 505.56 96.04C505.65 94.1 505.77 92.16 505.91 90.24L510.28 90.24L512.68 97.91L515.14 90.24C517.72 90.24 519.16 90.24 519.44 90.24C519.72 93.19 519.82 95.5 519.87 96.08C519.96 98 520.01 99.95 520.01 101.92C518.39 101.92 517.37 101.92 516.97 101.92Z" id="cJVvg2hDu"></path></defs><g><g><use xlink:href="#a1aTu7lOU4" opacity="1" fill="#00758f" fill-opacity="1"></use><g><use xlink:href="#a1aTu7lOU4" opacity="1" fill-opacity="0" stroke="#000000" stroke-width="1" stroke-opacity="0"></use></g></g><g><use xlink:href="#a1DPhq2qg" opacity="1" fill="#f29111" fill-opacity="1"></use><g><use xlink:href="#a1DPhq2qg" opacity="1" fill-opacity="0" stroke="#000000" stroke-width="1" stroke-opacity="0"></use></g></g><g><use xlink:href="#bK1ooNL9e" opacity="1" fill="#f29111" fill-opacity="1"></use><g><use xlink:href="#bK1ooNL9e" opacity="1" fill-opacity="0" stroke="#000000" stroke-width="1" stroke-opacity="0"></use></g></g><g><use xlink:href="#c1hVAsYFJQ" opacity="1" fill="#f29111" fill-opacity="1"></use><g><use xlink:href="#c1hVAsYFJQ" opacity="1" fill-opacity="0" stroke="#000000" stroke-width="1" stroke-opacity="0"></use></g></g><g><use xlink:href="#cJVvg2hDu" opacity="1" fill="#f29111" fill-opacity="1"></use><g><use xlink:href="#cJVvg2hDu" opacity="1" fill-opacity="0" stroke="#000000" stroke-width="1" stroke-opacity="0"></use></g></g></g></svg>