<?xml version="1.0" encoding="utf-8"?>
<!-- Generator: Adobe Illustrator 23.0.2, SVG Export Plug-In . SVG Version: 6.00 Build 0)  -->
<svg version="1.1" id="图层_1" xmlns="http://www.w3.org/2000/svg" xmlns:xlink="http://www.w3.org/1999/xlink" x="0px" y="0px"
	 viewBox="0 0 328.7 300" style="enable-background:new 0 0 328.7 300;" xml:space="preserve">
<style type="text/css">
	.st0{fill:#3C3C3B;}
</style>
<path class="st0" d="M312.8,102.4c-0.9-41.6-37.2-49.5-37.2-49.5s-28.3-0.2-65-0.5l26.7-25.8c0,0,4.2-5.3-3-11.2s-7.7-3.3-10.2-1.7
	c-2.2,1.6-34.2,33-39.8,38.6c-14.5,0-29.7-0.2-44.4-0.2h5.2c0,0-38.3-37.8-40.8-39.5c-2.5-1.7-2.8-4.2-10.2,1.7
	c-7.2,5.9-3,11.2-3,11.2l27.3,26.6c-29.7,0-55.3,0.2-67.2,0.6c-38.4,11.1-35.5,49.7-35.5,49.7s0.5,82.8,0,124.7
	c4.2,41.9,36.4,48.6,36.4,48.6s12.8,0.3,22.3,0.3c0.9,2.7,1.7,15.8,16.4,15.8c14.5,0,16.4-15.8,16.4-15.8s107-0.5,115.9-0.5
	c0.5,4.5,2.7,16.6,17.3,16.4c14.5-0.3,15.6-17.3,15.6-17.3s5-0.5,19.8,0c34.7-6.4,36.7-47,36.7-47S312.4,144,312.8,102.4z
	 M283,234.9c0,6.6-5.2,11.9-11.6,11.9H60.6c-6.4,0-11.6-5.3-11.6-11.9V95.1c0-6.6,5.2-11.9,11.6-11.9h210.9
	c6.4,0,11.6,5.3,11.6,11.9V234.9z"/>
<path class="st0" d="M133.1,122.7l-62,11.9l5.3,23.3l61.4-11.9L133.1,122.7z M166.5,184.4c-15.2,32.5-28.7,8-28.7,8l-10.2,6.6
	c0,0,20,27.3,39.1,6.6c22.5,20.8,39.7-6.7,39.7-6.7l-9.2-5.9C197.1,192.7,181,216,166.5,184.4L166.5,184.4z M197.1,146l61.5,11.9
	l5.2-23.3l-61.9-11.9L197.1,146z"/>
</svg>
