<?xml version="1.0" encoding="utf-8"?>
<!-- Generator: Adobe Illustrator 23.0.2, SVG Export Plug-In . SVG Version: 6.00 Build 0)  -->
<svg version="1.1" id="图层_1" xmlns="http://www.w3.org/2000/svg" xmlns:xlink="http://www.w3.org/1999/xlink" x="0px" y="0px"
	 viewBox="0 0 328.7 300" style="enable-background:new 0 0 328.7 300;" xml:space="preserve">
<style type="text/css">
	.st0{fill:#898987;}
</style>
<path class="st0" d="M46.9,193.3c8.8,0,17.7,0,27.3,0c0,23.7,0,46.9,0,70.9c59.4,0,117.9,0,177.6,0c0-23.6,0-47,0-69.8
	c1.5-0.8,1.7-1,2-1c24.5-3.8,25.2-3.2,25.2,20.8c0,25.9-0.2,51.8-0.3,77.8c-77.3,0-154.6,0-231.8,0C46.9,259,46.9,226.1,46.9,193.3z
	"/>
<path class="st0" d="M213,9.9c0.7,1.5,1,3.2,2,4.4c22.4,28.3,44.9,56.5,67.4,84.8c0.8,1,2.1,1.7,3.2,2.5c0,0.6,0,1.2,0,1.7
	c-7.3,5.5-14.6,10.9-22.5,16.9c-24-30.2-48.1-60.5-72.7-91.3c7.1-6.5,13.9-12.7,20.8-19C211.9,9.9,212.4,9.9,213,9.9z"/>
<path class="st0" d="M256.3,125.2c-5.7,8.1-10.7,15.3-16.1,22.9c-32-23.4-63.5-46.4-95.6-70c5.4-7.8,10.5-15,16-22.9
	C192.6,78.7,224.1,101.7,256.3,125.2z"/>
<path class="st0" d="M103,220c40.7,0,79.8,0,119.6,0c0,8.5,0,16.7,0,25.8c-2.2,0.2-4.7,0.5-7.1,0.5c-34.6,0-69.1-0.1-103.7,0.2
	c-6.6,0.1-9.6-1.5-8.9-8.6C103.5,232.2,103,226.5,103,220z"/>
<path class="st0" d="M223.4,176.3c-37.6-14.5-74.2-28.6-111.7-43.1c3.4-8.4,6.5-16.1,9.9-24.6c37.3,14.4,74.1,28.5,111.7,43
	C230,160,226.9,167.6,223.4,176.3z"/>
<path class="st0" d="M224.8,188.2c-2.2,9-4.1,17-6.2,25.7c-38.9-8.8-77.2-17.5-116.8-26.4c2-8.7,3.9-16.8,5.9-25.8
	C147.3,170.6,185.9,179.3,224.8,188.2z"/>
</svg>
