<?xml version="1.0" encoding="utf-8"?>
<!-- Generator: Adobe Illustrator 23.0.2, SVG Export Plug-In . SVG Version: 6.00 Build 0)  -->
<svg version="1.1" id="图层_1" xmlns="http://www.w3.org/2000/svg" xmlns:xlink="http://www.w3.org/1999/xlink" x="0px" y="0px"
	 viewBox="0 0 328.7 300" style="enable-background:new 0 0 328.7 300;" xml:space="preserve">
<style type="text/css">
	.st0{fill:#898987;}
</style>
<path class="st0" d="M118.4,295c0.3-3.8,0.8-7.5,0.8-11.3c0-72.6,0-145.2,0-217.7c0-3.7,0-7.4,0-11.6c10.3,0,19.3,0,29.5,0
	c0,80.5,0,160.5,0,240.6C138.6,295,128.5,295,118.4,295z"/>
<path class="st0" d="M180.9,295c0-79.8,0-159.6,0-240.2c9.8,0,19,0,29.5,0c0,3.9,0,7.6,0,11.3c0,72.6,0,145.2,0,217.7
	c0,3.8,0.5,7.5,0.8,11.3C201.2,295,191.1,295,180.9,295z"/>
<path class="st0" d="M88,4.9c0,60.9,0,121.7,0,183.9c-10.9,0-20.6,0-30.3,0c0-61.3,0-122.6,0-183.9C67.9,4.9,78,4.9,88,4.9z"/>
<path class="st0" d="M272,188.8c-9.7,0-19.4,0-29.6,0c0-45.2,0-89.2,0-134.6c9.8,0,19.7,0,29.6,0C272,99.1,272,143.9,272,188.8z"/>
</svg>
