<?xml version="1.0" encoding="utf-8"?>
<!-- Generator: Adobe Illustrator 23.0.2, SVG Export Plug-In . SVG Version: 6.00 Build 0)  -->
<svg version="1.1" id="图层_1" xmlns="http://www.w3.org/2000/svg" xmlns:xlink="http://www.w3.org/1999/xlink" x="0px" y="0px"
	 viewBox="0 0 200 200" style="enable-background:new 0 0 200 200;" xml:space="preserve">
<style type="text/css">
	.st0{fill:#1296DB;}
</style>
<path class="st0" d="M118.2,60.9H83L65.4,30.4L83,0h35.2l17.6,30.4L118.2,60.9z M89.4,49.7h22.4l11.2-19.3l-11.2-19.3H89.4
	L78.3,30.4C78.3,30.4,89.4,49.7,89.4,49.7z M52.9,171.5H17.6L0,141.1l17.6-30.4h35.2l17.6,30.4L52.9,171.5z M24.1,160.3h22.4
	l11.2-19.3l-11.2-19.3H24.1l-11.2,19.3C12.9,141.1,24.1,160.3,24.1,160.3z M183.6,171.5h-35.2l-17.6-30.4l17.6-30.4h35.2l17.6,30.4
	L183.6,171.5z M154.8,160.3h22.4l11.2-19.3l-11.2-19.3h-22.4l-11.2,19.3L154.8,160.3z M6.5,105c-3.1,0-5.6-2.5-5.6-5.6
	c0-12.9,2.5-25.5,7.3-37.4c5-12.3,12.4-23.4,21.9-32.9c4.1-4.1,8.6-7.9,13.3-11.1c2.5-1.8,6-1.1,7.8,1.4c1.8,2.5,1.1,6-1.4,7.8
	c-4.2,2.9-8.2,6.3-11.8,9.9C21.3,53.7,12,75.8,12,99.4C12,102.5,9.6,105,6.5,105z M100.6,198.7c-14.5,0-29.1-3.2-42.2-9.3
	c-2.8-1.3-4-4.6-2.7-7.4c1.3-2.8,4.6-4,7.4-2.7c23.8,11.1,51.1,11.1,74.9,0c2.8-1.3,6.1-0.1,7.4,2.7c1.3,2.8,0.1,6.1-2.7,7.4
	C129.7,195.5,115.1,198.7,100.6,198.7z M194.8,105c-3.1,0-5.6-2.5-5.6-5.6c0-23.6-9.2-45.7-25.9-62.4c-4.1-4.1-8.6-7.8-13.4-11
	c-2.6-1.7-3.3-5.2-1.5-7.8c1.7-2.6,5.2-3.3,7.8-1.5c5.4,3.6,10.5,7.8,15.1,12.4c9.5,9.5,16.9,20.5,21.9,32.9
	c4.8,11.9,7.3,24.5,7.3,37.4C200.4,102.5,197.9,105,194.8,105L194.8,105z M30.9,105c-3.1,0-5.6-2.5-5.6-5.6c0-20,7.9-38.9,22.1-53.1
	c3.1-3.1,6.5-5.9,10-8.4c2.5-1.8,6-1.1,7.8,1.4c1.8,2.5,1.1,6-1.4,7.8c-3,2.1-5.9,4.5-8.6,7.2C43.1,66.3,36.4,82.3,36.4,99.3
	C36.5,102.5,34,105,30.9,105z M100.6,174.4c-11,0-22-2.4-31.8-7c-2.8-1.3-4-4.6-2.7-7.4c1.3-2.8,4.6-4,7.4-2.7c17.2,8,37,8,54.3,0
	c2.8-1.3,6.1-0.1,7.4,2.7c1.3,2.8,0.1,6.1-2.7,7.4C122.6,172,111.6,174.4,100.6,174.4z M170.4,105c-3.1,0-5.6-2.5-5.6-5.6
	c0-17.1-6.7-33.1-18.8-45.2c-2.7-2.6-5.5-5-8.6-7.2c-2.5-1.8-3.2-5.2-1.4-7.8c1.8-2.5,5.3-3.2,7.8-1.4c3.6,2.5,7,5.3,10,8.4
	c14.2,14.2,22.1,33,22.1,53.1C176,102.5,173.5,105,170.4,105z"/>
</svg>
