<?xml version="1.0" encoding="utf-8"?>
<!-- Generator: Adobe Illustrator 23.0.2, SVG Export Plug-In . SVG Version: 6.00 Build 0)  -->
<svg version="1.1" id="图层_1" xmlns="http://www.w3.org/2000/svg" xmlns:xlink="http://www.w3.org/1999/xlink" x="0px" y="0px"
	 viewBox="0 0 328.7 300" style="enable-background:new 0 0 328.7 300;" xml:space="preserve">
<style type="text/css">
	.st0{fill:#686868;}
</style>
<path class="st0" d="M304.5,185.8c0,1.1,0,2.2,0,3.3c-3,8.2-9.1,11-17.5,10.5c-6.4-0.4-12.9-0.1-20-0.1c0,7.6,0.1,14.4,0,21.2
	c-0.3,16.2-10.2,29.9-24.9,33c-7.7,1.6-15.8,1.1-23.8,1.5c-2.3,0.1-4.5,0-7.1,0c0,7.3-0.3,13.7,0.1,20c0.5,8.4-2.3,14.5-10.5,17.5
	c-1.1,0-2.2,0-3.3,0c-8.3-3.1-10.7-9.3-10.2-17.6c0.4-6.4,0.1-12.9,0.1-19.8c-14.4,0-27.9-0.1-41.3,0.2c-1.1,0-3.1,2.3-3.2,3.6
	c-0.4,5.4-0.6,10.9-0.1,16.3c0.8,8.2-1.9,14.1-9.7,17.4c-1.5,0-2.9,0-4.4,0c-7.8-3.6-10.3-9.8-9.6-18.1c0.5-6.2,0.1-12.6,0.1-19.4
	c-9.7,0-18.6,0.1-27.4,0c-15.8-0.2-28.6-9.3-32.8-23.7c-1.3-4.6-1.6-9.6-1.8-14.5c-0.3-5.7-0.1-11.5-0.1-17.5
	c-7.1,0-13.3-0.3-19.4,0.1c-8.5,0.5-15-1.9-18.1-10.5c0-1.1,0-2.2,0-3.3c3.1-8.3,9.3-10.7,17.7-10.1c6.4,0.4,12.9,0.1,19.8,0.1
	c0-14.5,0.1-27.9-0.2-41.3c0-1.1-2.3-3.1-3.6-3.2c-5.4-0.4-10.9-0.6-16.3-0.1c-8.2,0.8-14.1-1.9-17.4-9.7c0-1.1,0-2.2,0-3.3
	c2.7-8.4,8.6-11.3,17.2-10.7c6.6,0.5,13.3,0.1,20.3,0.1c0-9.7-0.1-18.4,0-27.1C57.6,62.2,68.6,49,86.6,46.2c6-0.9,12.3-0.6,18.5-0.7
	c4.6-0.1,9.3,0,14.4,0c0-7.1,0.4-13.3-0.1-19.4c-0.7-8.3,1.8-14.5,9.6-18.1c1.5,0,2.9,0,4.4,0c7.8,3.3,10.5,9.1,9.7,17.4
	c-0.5,5,0.1,10.2-0.1,15.2c-0.2,3.9,1.3,5,5.1,4.9c8-0.2,16-0.1,24-0.1c5,0,10,0,15.7,0c0-7.2,0.3-13.5-0.1-19.8
	c-0.5-8.3,1.9-14.6,10.2-17.6c1.1,0,2.2,0,3.3,0c8.2,3,11,9.1,10.5,17.5c-0.4,6.4-0.1,12.9-0.1,19.9c7.4,0,14.1-0.1,20.8,0
	c18.3,0.3,31.4,11.3,34.2,29.3c0.9,6,0.6,12.3,0.7,18.5c0.1,4.6,0,9.3,0,14.3c7.1,0,13.3,0.4,19.4-0.1c8.3-0.7,14.5,1.7,18.1,9.6
	c0,1.5,0,2.9,0,4.4c-3.2,7.8-9.2,10.5-17.4,9.7c-5-0.5-10.2,0.1-15.2-0.1c-3.9-0.2-5,1.4-4.9,5.1c0.2,8,0.1,16,0.1,24
	c0,5,0,10,0,15.7c7.2,0,13.5,0.3,19.8-0.1C295.2,175.1,301.5,177.5,304.5,185.8z M162,236.3c23.4,0,46.9,0,70.3,0
	c10.1,0,15.9-5.7,15.9-15.8c0-46.7,0-93.4,0-140.1c0-10.4-5.7-16.1-16.2-16.1c-46.5,0-93,0-139.5,0C82,64.4,76.2,70,76.2,80.4
	c0,46.5,0,93,0,139.5c0,10.8,5.6,16.3,16.5,16.3C115.8,236.3,138.9,236.3,162,236.3z"/>
<path class="st0" d="M165.5,199.6c-9.6,0-19.2,0-28.9,0c-11.2-0.1-17.1-6-17.1-17.2c0-19.2-0.1-38.5,0-57.7c0-10.9,6-16.9,16.8-17
	c19.4-0.1,38.9-0.1,58.3,0c10.8,0,16.8,6,16.8,16.9c0.1,19.4,0.1,38.9,0,58.3c0,10.6-6,16.6-16.5,16.7
	C185.1,199.7,175.3,199.6,165.5,199.6z M138.7,180.4c18.2,0,35.8,0,53.5,0c0-18,0-35.7,0-53.4c-18.1,0-35.7,0-53.5,0
	C138.7,144.9,138.7,162.5,138.7,180.4z"/>
</svg>
