<?xml version="1.0" encoding="utf-8"?>
<!-- Generator: Adobe Illustrator 23.0.2, SVG Export Plug-In . SVG Version: 6.00 Build 0)  -->
<svg version="1.1" id="图层_1" xmlns="http://www.w3.org/2000/svg" xmlns:xlink="http://www.w3.org/1999/xlink" x="0px" y="0px"
	 viewBox="0 0 328.7 300" style="enable-background:new 0 0 328.7 300;" xml:space="preserve">
<style type="text/css">
	.st0{fill:#686868;}
</style>
<path class="st0" d="M5.2,175.4c3.9-8.6,10.8-11,19.8-10.9c23,0.3,46,0.1,69,0.1c1.8,0,3.7-0.1,5.5,0.1c7.2,0.6,13.3,6.3,13.4,12.5
	c0.1,6.4-5.9,12.5-13.4,12.9c-7.1,0.4-14.3,0.4-21.5,0.1c-4.8-0.2-5.9,1.6-5.9,6.1c0.2,23.2-0.1,46.3,0.2,69.5
	c0.1,9.1-2.4,15.9-11.1,19.7c-1.3,0-2.7,0-4,0c-8.7-4.1-11-11.2-10.9-20.4c0.4-23,0-46,0.2-68.9c0-4.7-1.5-6.2-6-5.9
	c-5.1,0.3-10.3-0.2-15.5,0.1c-9,0.5-15.9-2.3-19.8-10.9C5.2,178.1,5.2,176.7,5.2,175.4z"/>
<path class="st0" d="M267.2,285.4c-8.7-3.8-11.3-10.6-11-19.7c0.4-12.1,0-24.3,0.2-36.5c0-3.8-1.1-5.4-5.1-5.2
	c-6.3,0.3-12.7,0.2-19,0c-2.1,0-4.3-0.3-6.4-0.9c-6.7-2-10.8-7.2-10.3-13c0.5-5.7,5.9-11.1,12.6-11.5c7.1-0.5,14.3-0.3,21.5-0.4
	c18,0,36,0.2,53.9-0.1c9-0.1,16,2.4,19.7,11.2c0,1.3,0,2.7,0,4c-4.2,8.5-11.4,11.4-20.5,10.8c-5.1-0.3-10.3,0.2-15.5-0.1
	c-4.3-0.3-5.4,1.5-5.3,5.5c0.2,11.8-0.3,23.7,0.2,35.5c0.3,9.2-2.2,16.3-10.9,20.4C269.9,285.4,268.5,285.4,267.2,285.4z"/>
<path class="st0" d="M159.2,285.4c-9-3.7-11.7-10.9-11.6-20c0.1-36.3,0-72.6,0.1-108.9c0-4,1-8.3,2.6-12c1.7-4.2,5.2-6.7,10.1-6.9
	c5.1-0.2,8.8,2.4,10.8,6.6c1.5,3,2.5,6.6,2.5,10c0.2,38,0.1,75.9,0.1,113.9c0,8.4-3.8,14.2-11.7,17.3
	C161.2,285.4,160.2,285.4,159.2,285.4z"/>
<path class="st0" d="M271.2,15.4c8.7,4.1,11,11.2,10.9,20.4c-0.3,36.5-0.1,73-0.2,109.5c0,2.8-0.2,5.7-1,8.3
	c-2.1,6.7-7.3,10.2-13.4,9.5c-5.3-0.6-10.2-5.9-11-12c-0.3-2.1-0.3-4.3-0.3-6.5c0-36.5,0.1-73-0.1-109.5
	c-0.1-9.1,2.4-15.9,11.1-19.7C268.5,15.4,269.9,15.4,271.2,15.4z"/>
<path class="st0" d="M61.2,15.4c8.9,3.1,11.2,9.6,11.1,18.7c-0.4,29.4-0.1,58.9-0.2,88.3c0,8-4.6,13.3-11.5,13.7
	c-8.3,0.6-14.1-4.7-14.2-13c-0.1-17,0-33.9,0-50.9c0-12.6,0.4-25.3-0.1-37.9c-0.4-9,2.1-15.5,10.9-18.9
	C58.6,15.4,59.9,15.4,61.2,15.4z"/>
<path class="st0" d="M160.8,109.2c-13,0-26,0.1-38.9,0c-7.5-0.1-13.8-5.2-14.4-11.3c-0.7-7.3,5.3-13.8,13.6-14.1c7-0.3,14-0.3,21,0
	c4.3,0.2,5.8-1,5.7-5.5c-0.3-12.3-0.3-24.6,0-36.9c0.1-4,0.9-8.4,2.8-11.9c4.8-9,15.9-8.9,20.7,0.1c1.7,3.1,2.5,6.9,2.5,10.5
	c0.3,13,0.2,26,0,38.9c-0.1,3.8,1.3,5,4.9,4.8c6.8-0.2,13.7-0.4,20.5,0.1c3.3,0.2,6.9,1.4,9.7,3.1c4.7,2.8,6.4,8,4.9,13
	c-1.5,4.9-7.3,9.2-13.6,9.2C187.1,109.3,173.9,109.2,160.8,109.2z"/>
</svg>
