<?xml version="1.0" encoding="utf-8"?>
<!-- Generator: Adobe Illustrator 23.0.2, SVG Export Plug-In . SVG Version: 6.00 Build 0)  -->
<svg version="1.1" id="图层_1" xmlns="http://www.w3.org/2000/svg" xmlns:xlink="http://www.w3.org/1999/xlink" x="0px" y="0px"
	 viewBox="0 0 328.7 300" style="enable-background:new 0 0 328.7 300;" xml:space="preserve">
<style type="text/css">
	.st0{fill:#686868;}
</style>
<path class="st0" d="M212.2,16c3.2,0,6.4,0,9.6,0c1.5,0.4,3,1.1,4.6,1.2c31.7,3.6,57.1,26.7,63.8,58.1c0.7,3.4,1.5,6.9,2.3,10.3
	c0,3.2,0,6.4,0,9.6c-0.4,1.3-1.1,2.7-1.2,4.1c-2.1,18.6-10.4,33.9-24.1,46.3c-11.8,10.7-23.5,21.4-35.3,32
	c-17,15.5-34.5,30.5-50.9,46.7c-6.3,6.2-12.3,8.3-20.7,8.2c-21.1-0.4-42.1-0.3-63.2,0c-3.1,0.1-6.9,1.7-9.2,3.9
	c-9.2,8.7-17.9,18-26.9,26.8c-5.1,4.9-10.6,9.4-15.9,14.1c-2,0.9-4,0.8-6,0.4c-5-1-7.8-3.5-8.7-9.5c0-1.4,0-3,0.7-4.8
	c3.3-3.9,6.3-8.1,9.8-11.8c7.9-8.2,16-16.3,24.2-24.3c2.8-2.7,3.9-5.5,3.9-9.4c-0.2-25.5,0-51-0.2-76.6c0-5.4,1.4-9.7,5.8-13.1
	c1.7-1.3,3.1-2.9,4.6-4.4c28.3-28.3,56.6-56.5,84.8-84.8C175,28.2,187.8,21,203,18.1C206.1,17.5,209.1,16.7,212.2,16z M156.1,167.9
	c1.5,0.5,1.9,0.9,2.4,0.9c16.8,0,33.5,0.1,50.3,0c1.9,0,4.1-1.3,5.5-2.7c13.7-12.3,27.6-24.3,40.8-37.1c15.1-14.6,20-32.8,14.3-52.9
	c-11.3-39.7-60.5-52.4-90.1-23.3c-28.5,28-56.7,56.4-84.8,84.8c-2,2-3.3,5.6-3.4,8.4c-0.3,15.9-0.2,31.8-0.1,47.7
	c0,1.8,0.3,3.6,0.6,6.6c2.6-2.5,4.2-3.9,5.7-5.4c24.1-24.3,48.3-48.6,72.4-73c10.1-10.1,19.9-20.5,30.3-30.2c2.6-2.5,7.1-4,10.8-4
	c4.2-0.1,7.4,3.2,8.6,7.6c1.4,4.8-0.2,8.7-3.6,12.1c-18.4,18.5-36.7,37-55.1,55.5C159.4,164.3,158,165.9,156.1,167.9z M186.2,191.8
	c-0.2-0.5-0.4-1-0.6-1.5c-1.9,0-3.7,0-5.6,0c-12.1,0.3-24.2,1.2-36.3,0.7c-8.2-0.3-14.4,1.7-19.4,8.3c-2.7,3.5-6.1,6.4-9.3,9.6
	c16.9,1.2,32.9,1.2,48.9,1.2c0.7,0,1.5-0.1,2-0.5C172.8,203.7,179.5,197.8,186.2,191.8z"/>
</svg>
