<?xml version="1.0" encoding="utf-8"?>
<!-- Generator: Adobe Illustrator 23.0.2, SVG Export Plug-In . SVG Version: 6.00 Build 0)  -->
<svg version="1.1" id="图层_1" xmlns="http://www.w3.org/2000/svg" xmlns:xlink="http://www.w3.org/1999/xlink" x="0px" y="0px"
	 viewBox="0 0 328.7 300" style="enable-background:new 0 0 328.7 300;" xml:space="preserve">
<style type="text/css">
	.st0{fill:#686868;}
</style>
<path class="st0" d="M303.3,9.3c-2.5-2.5-6.3-3.3-9.6-2l-268,103.2c-3.1,1.2-5.2,3.9-5.7,7.2c-0.4,3.3,0.9,6.5,3.6,8.5l93.7,69.2
	l69.2,93.7c2,2.6,5.2,4,8.4,3.6c3.3-0.4,6-2.6,7.2-5.7l103.2-268C306.6,15.6,305.8,11.8,303.3,9.3L303.3,9.3z M47.5,121.4l213.1-82
	L122.8,177L47.5,121.4L47.5,121.4z M191.2,265.1l-55.7-75.3L273.3,52.1L191.2,265.1L191.2,265.1z"/>
</svg>
