<?xml version="1.0" encoding="utf-8"?>
<!-- Generator: Adobe Illustrator 23.0.2, SVG Export Plug-In . SVG Version: 6.00 Build 0)  -->
<svg version="1.1" id="图层_1" xmlns="http://www.w3.org/2000/svg" xmlns:xlink="http://www.w3.org/1999/xlink" x="0px" y="0px"
	 viewBox="0 0 328.7 300" style="enable-background:new 0 0 328.7 300;" xml:space="preserve">
<style type="text/css">
	.st0{fill:#686868;}
</style>
<path class="st0" d="M241,228.4c-7.1,0-12.8,5.8-12.8,12.8c0,0,0,0,0,0c0,14.2-11.5,25.7-25.7,25.7c-14.2,0-25.7-11.5-25.7-25.7
	v-77.1h141.3C318.1,79,249.1,10,163.9,10S9.7,79,9.7,164.2h141.3v77.1c0,28.4,23,51.4,51.4,51.4c28.4,0,51.4-23,51.4-51.4
	C253.9,234.2,248.1,228.4,241,228.4C241,228.4,241,228.4,241,228.4z M163.9,35.7c61.1,0,113.7,43,125.9,102.8H38
	C50.2,78.7,102.9,35.7,163.9,35.7z"/>
</svg>
