<?xml version="1.0" encoding="UTF-8" standalone="no"?>
<!DOCTYPE svg PUBLIC "-//W3C//DTD SVG 1.1//EN" "http://www.w3.org/Graphics/SVG/1.1/DTD/svg11.dtd">
<svg version="1.1" xmlns="http://www.w3.org/2000/svg" xmlns:xlink="http://www.w3.org/1999/xlink" preserveAspectRatio="xMidYMid meet" viewBox="43.31357127833414 339.0684399064345 627.2635328090378 96.91565128766786" width="623.26" height="92.92"><defs><path d="M253.56 369.67C253.56 367.68 254.24 366.29 254.31 365.92C254.79 364.78 255.49 363.75 256.36 362.87C257.24 362 258.27 361.3 259.41 360.82C260.58 360.32 261.84 360.06 263.12 360.07C264.84 360.07 278.61 360.07 280.33 360.07C282.24 360.07 283.58 360.7 283.94 360.77C285.65 361.48 286.64 362.53 286.94 362.72C288.23 363.97 288.83 365.36 289.04 365.65C289.58 366.77 289.86 367.97 289.89 369.24L289.89 360.07L299.5 360.07C299.5 398.05 299.5 419.15 299.5 423.37C299.5 425.37 298.82 426.75 298.75 427.13C298.26 428.27 297.57 429.3 296.7 430.18C295.82 431.05 294.79 431.75 293.65 432.23C292.48 432.73 291.23 432.98 289.89 432.98L259.56 432.98L259.56 423.37L289.89 423.37L289.89 410.01C273.83 410.01 264.9 410.01 263.12 410.01C261.84 410.02 260.58 409.76 259.41 409.26C258.27 408.77 257.24 408.08 256.36 407.21C255.49 406.33 254.79 405.3 254.31 404.16C253.81 402.99 253.56 401.74 253.56 400.4C253.56 381.97 253.56 371.72 253.56 369.67ZM202.54 432.98L213.41 407.33L193.03 360.07L203.12 360.07L218.29 395.82L233.46 360.07L243.56 360.07L212.1 432.98L202.54 432.98ZM398.95 360.07L411.63 360.07L411.63 344.07L421.24 344.07L421.24 360.07L438.31 360.07L438.31 369.67L421.24 369.67L421.24 402.4L438.31 402.4L438.31 412.01C428.07 412.01 422.38 412.01 421.24 412.01C419.97 412.02 418.71 411.76 417.54 411.26C415.78 410.5 414.77 409.41 414.46 409.21C413.58 408.34 412.87 407.3 412.39 406.16C411.89 404.99 411.63 403.73 411.63 402.4L411.63 369.67L398.95 369.67L398.95 360.07ZM44.31 412.01L44.31 342.07C67.29 342.07 80.05 342.07 82.6 342.07C84.87 342.04 87.13 342.32 89.32 342.91C96.85 345.08 97.9 351.8 98.85 352.79C99.36 354.85 99.6 356.97 99.57 359.09C99.57 360.09 99.57 368.05 99.57 369.04C99.57 382.55 89.96 383.71 88.89 385.34C86.83 385.84 84.72 386.09 82.6 386.06C80.72 386.06 71.29 386.06 54.31 386.06L54.31 412.01L44.31 412.01ZM157.47 402.4C157.47 404.4 156.79 405.78 156.71 406.16C156.23 407.3 155.54 408.33 154.67 409.21C153.8 410.07 152.77 410.77 151.64 411.26C150.5 411.75 149.28 412 148.04 412.01C147.99 412.01 147.95 412.01 147.91 412.01C145.33 412.01 124.69 412.01 122.11 412.01C120.83 412.02 119.57 411.76 118.4 411.26C117.26 410.77 116.23 410.08 115.35 409.21C114.48 408.33 113.79 407.3 113.3 406.16C112.8 404.99 112.55 403.73 112.55 402.4C112.55 382.77 112.55 371.86 112.55 369.67C112.55 367.68 113.23 366.29 113.3 365.92C113.79 364.78 114.48 363.75 115.35 362.87C116.23 362 117.26 361.3 118.4 360.82C119.57 360.32 120.83 360.06 122.11 360.07C124.69 360.07 145.33 360.07 147.91 360.07C149.03 360.06 150.15 360.25 151.2 360.64C151.35 360.7 151.5 360.76 151.64 360.82C152.77 361.31 153.8 362 154.67 362.87C155.54 363.75 156.23 364.78 156.71 365.92C157.22 367.09 157.47 368.34 157.47 369.67C157.47 389.31 157.47 400.22 157.47 402.4ZM385.98 402.4C385.98 404.4 385.3 405.78 385.22 406.16C384.74 407.3 384.04 408.33 383.17 409.21C382.3 410.07 381.28 410.77 380.15 411.26C379.01 411.75 377.78 412 376.54 412.01C376.5 412.01 376.46 412.01 376.42 412.01C373.84 412.01 353.2 412.01 350.62 412.01C349.34 412.02 348.08 411.76 346.91 411.26C345.77 410.77 344.74 410.08 343.86 409.21C342.99 408.33 342.29 407.3 341.81 406.16C341.31 404.99 341.06 403.73 341.06 402.4C341.06 382.77 341.06 371.86 341.06 369.67C341.06 367.68 341.74 366.29 341.81 365.92C342.29 364.78 342.99 363.75 343.86 362.87C344.74 362 345.77 361.3 346.91 360.82C348.08 360.32 349.34 360.06 350.62 360.07C353.2 360.07 373.84 360.07 376.42 360.07C377.54 360.06 378.66 360.25 379.71 360.64C379.86 360.7 380.01 360.76 380.15 360.82C381.28 361.31 382.3 362 383.17 362.87C384.04 363.75 384.74 364.78 385.22 365.92C385.73 367.09 385.98 368.34 385.98 369.67C385.98 389.31 385.98 400.22 385.98 402.4ZM183.03 340.07L183.03 412.01L173.47 412.01L173.47 340.07L183.03 340.07ZM325.06 340.07L325.06 412.01L315.5 412.01L315.5 340.07L325.06 340.07ZM122.11 369.67L122.11 402.4L147.91 402.4L147.91 369.67L122.11 369.67ZM350.62 369.67L350.62 402.4L376.42 402.4L376.42 369.67L350.62 369.67ZM289.89 400.4L289.89 369.67L263.12 369.67L263.12 400.4L289.89 400.4ZM54.31 376.06C70.96 376.06 80.21 376.06 82.06 376.06C82.75 376.07 83.43 376.02 84.11 375.93C86.51 375.58 87.41 374.51 87.77 374.35C87.79 374.34 87.81 374.32 87.82 374.31C88.32 373.79 88.71 373.18 88.96 372.51C89.57 370.95 89.51 369.01 89.58 368.62C89.58 368.6 89.58 368.58 89.58 368.55C89.58 367.66 89.58 360.48 89.58 359.58C89.58 358.89 89.53 358.21 89.44 357.53C89.1 355.14 88.02 354.24 87.87 353.87C87.85 353.85 87.84 353.84 87.82 353.82C87.31 353.32 86.7 352.94 86.02 352.69C84.46 352.08 82.53 352.13 82.14 352.07C82.11 352.07 82.09 352.07 82.06 352.07C80.21 352.07 70.96 352.07 54.31 352.07L54.31 376.06Z" id="abDZ0nrHi"></path><path d="M496.71 411.86L490.5 411.86L490.5 384.53L473.22 384.53L473.22 411.86L467.05 411.86L467.05 378.33L473.22 378.33C473.22 381.88 473.22 383.86 473.22 384.25C473.26 383.45 473.45 382.66 473.79 381.94C474.29 380.85 474.99 380.24 475.13 380.05C475.69 379.51 476.34 379.08 477.06 378.79C477.8 378.49 478.58 378.33 479.42 378.33C486.07 378.33 489.76 378.33 490.5 378.33C491.79 378.33 492.69 378.77 492.93 378.82C493.66 379.13 494.33 379.58 494.9 380.14C495.46 380.71 495.91 381.38 496.22 382.11C496.54 382.87 496.71 383.67 496.71 384.53L496.71 411.86ZM667.58 411.86L661.38 411.86L661.38 384.53L644.09 384.53L644.09 411.86L637.92 411.86L637.92 378.33L644.09 378.33C644.09 381.88 644.09 383.86 644.09 384.25C644.13 383.45 644.32 382.66 644.66 381.94C645.16 380.85 645.86 380.24 646 380.05C646.56 379.51 647.22 379.08 647.93 378.79C648.67 378.49 649.46 378.33 650.3 378.33C656.94 378.33 660.64 378.33 661.38 378.33C662.67 378.33 663.56 378.77 663.8 378.82C664.53 379.13 665.2 379.58 665.77 380.14C666.33 380.71 666.78 381.38 667.09 382.11C667.41 382.87 667.58 383.67 667.58 384.53L667.58 411.86ZM605.4 384.53L605.4 405.66L621.4 405.66L621.4 399.99L627.6 399.99C627.6 403.39 627.6 405.28 627.6 405.66C627.6 406.95 627.16 407.84 627.11 408.08C626.8 408.82 626.35 409.48 625.79 410.05C625.22 410.61 624.55 411.06 623.82 411.37C623.06 411.7 622.26 411.86 621.4 411.86C611.8 411.86 606.47 411.86 605.4 411.86C604.58 411.86 603.77 411.7 603.01 411.37C602.28 411.06 601.61 410.61 601.04 410.05C600.48 409.48 600.03 408.82 599.72 408.08C599.4 407.33 599.24 406.52 599.24 405.66C599.24 392.98 599.24 385.94 599.24 384.53C599.24 383.24 599.67 382.35 599.72 382.11C600.03 381.38 600.48 380.71 601.04 380.14C601.61 379.58 602.28 379.13 603.01 378.82C603.77 378.5 604.58 378.33 605.4 378.33C607 378.33 619.8 378.33 621.4 378.33C622.69 378.33 623.58 378.77 623.82 378.82C624.55 379.13 625.22 379.58 625.79 380.14C626.35 380.71 626.8 381.38 627.11 382.11C627.44 382.87 627.6 383.67 627.6 384.53L627.6 390.2L621.4 390.2L621.4 384.53L605.4 384.53ZM535.39 398.26L513.2 398.26L513.2 405.66L535.39 405.66L535.39 411.86C522.08 411.86 514.68 411.86 513.2 411.86C512.38 411.86 511.56 411.7 510.81 411.37C510.07 411.06 509.41 410.61 508.84 410.05C508.28 409.48 507.83 408.82 507.52 408.08C507.19 407.33 507.03 406.52 507.03 405.66C507.03 392.98 507.03 385.94 507.03 384.53C507.03 383.24 507.47 382.35 507.52 382.11C507.83 381.38 508.28 380.71 508.84 380.14C509.41 379.58 510.07 379.13 510.81 378.82C511.56 378.5 512.38 378.33 513.2 378.33C514.8 378.33 527.59 378.33 529.19 378.33C530.48 378.33 531.37 378.77 531.62 378.82C532.35 379.13 533.02 379.58 533.58 380.14C534.15 380.71 534.59 381.38 534.91 382.11C535.23 382.87 535.39 383.67 535.39 384.53L535.39 398.26ZM543.77 378.33L551.95 378.33L551.95 368.01L558.15 368.01L558.15 378.33L569.17 378.33L569.17 384.53L558.15 384.53L558.15 405.66L569.17 405.66L569.17 411.86C562.56 411.86 558.89 411.86 558.15 411.86C557.33 411.86 556.52 411.7 555.76 411.37C554.63 410.88 553.98 410.18 553.78 410.05C553.21 409.49 552.75 408.82 552.44 408.08C552.12 407.33 551.95 406.52 551.95 405.66L551.95 384.53L543.77 384.53L543.77 378.33ZM513.2 384.53L513.2 392.06L529.19 392.06L529.19 384.53L513.2 384.53ZM447.31 402.45L456.73 402.45L456.73 411.86L447.31 411.86L447.31 402.45ZM579.5 402.45L588.91 402.45L588.91 411.86L579.5 411.86L579.5 402.45Z" id="c2Q0oTgDuv"></path></defs><g><g><use xlink:href="#abDZ0nrHi" opacity="1" fill="#800080" fill-opacity="1"></use><g><use xlink:href="#abDZ0nrHi" opacity="1" fill-opacity="0" stroke="#000000" stroke-width="1" stroke-opacity="0"></use></g></g><g><use xlink:href="#c2Q0oTgDuv" opacity="1" fill="#000000" fill-opacity="1"></use><g><use xlink:href="#c2Q0oTgDuv" opacity="1" fill-opacity="0" stroke="#000000" stroke-width="1" stroke-opacity="0"></use></g></g></g></svg>