<?xml version="1.0" encoding="utf-8"?>
<!-- Generator: Adobe Illustrator 23.0.2, SVG Export Plug-In . SVG Version: 6.00 Build 0)  -->
<svg version="1.1" id="图层_1" xmlns="http://www.w3.org/2000/svg" xmlns:xlink="http://www.w3.org/1999/xlink" x="0px" y="0px"
	 viewBox="0 0 24 24" style="enable-background:new 0 0 24 24;" xml:space="preserve">
<style type="text/css">
	.st0{fill:#FFFFFF;}
</style>
<path class="st0" d="M24,12c0,6.6-5.4,12-12,12c-5.8,0-10.6-4.1-11.7-9.5l4.8,2C5.3,17.9,6.6,19,8.1,19c1.7,0,3.1-1.4,3.1-3.1l0,0
	l3.6-2.7c2.3,0,4.1-1.8,4.1-4.1C19,6.8,17.2,5,14.9,5c-2.2,0-4,1.8-4.1,4l-2.6,3.7c-0.7,0-1.3,0.2-1.8,0.5l-6.3-2.6
	C0.8,4.6,5.9,0,12,0C18.6,0,24,5.4,24,12z M7.4,17.5l-1.5-0.6c0.4,0.9,1.2,1.5,2.2,1.5c1.3,0,2.4-1.1,2.4-2.5c0-1.3-1.1-2.4-2.4-2.4
	c-0.3,0-0.6,0.1-0.9,0.2l1.5,0.6c0.9,0.4,1.3,1.4,0.9,2.3C9.4,17.4,8.3,17.9,7.4,17.5z M14.9,11.9c-1.5,0-2.8-1.2-2.8-2.8
	c0-1.5,1.2-2.8,2.8-2.8c1.5,0,2.8,1.2,2.8,2.8C17.7,10.6,16.4,11.9,14.9,11.9z M14.9,11.2c1.2,0,2.1-0.9,2.1-2.1
	C17,7.9,16.1,7,14.9,7s-2.1,0.9-2.1,2.1C12.8,10.3,13.7,11.2,14.9,11.2z"/>
</svg>
