<?xml version="1.0" encoding="UTF-8" standalone="no"?>
<!DOCTYPE svg PUBLIC "-//W3C//DTD SVG 1.1//EN" "http://www.w3.org/Graphics/SVG/1.1/DTD/svg11.dtd">
<svg version="1.1" xmlns="http://www.w3.org/2000/svg" xmlns:xlink="http://www.w3.org/1999/xlink" preserveAspectRatio="xMidYMid meet" viewBox="-1 130.17382077917475 383.4390000000001 110.42141173172922" width="379.44" height="106.42"><defs><path d="M64.22 131.17L81.85 131.17L48.64 223.62L33.1 223.62L0 131.17L17.56 131.17L40.76 203.49L64.22 131.17ZM100.99 182.36L100.99 210.79L145.29 210.79L145.29 223.62L84.95 223.62L84.95 131.17L144.85 131.17L144.85 144.14L100.99 144.14L100.99 169.66L138.92 169.66L138.92 182.36L100.99 182.36ZM167.13 144.14C177.29 144.14 182.93 144.14 184.06 144.14C189.62 144.24 193.83 145.62 196.63 148.33C199.43 151.03 200.84 154.88 200.84 159.8C200.84 164.53 199.33 168.28 196.29 171.01C193.26 173.75 189.01 175.1 183.62 175.1C183.01 175.1 179.96 175.1 174.48 175.1L174.48 183.27L203.51 223.62L220.7 223.62L220.7 222.81C205.08 201.19 196.41 189.18 194.67 186.78C203.07 184.92 209.27 179.46 212.41 174.66C215.17 170.41 216.89 165.31 216.89 159.13C216.89 150.08 213.99 143.13 208.19 138.37C202.43 133.57 194.2 131.17 183.55 131.17C181.39 131.17 170.57 131.17 151.09 131.17L151.09 223.62L167.13 223.62" id="a2mzoiEAp3"></path><path d="M354.73 184.42L340.74 205.59L350.75 223.62L379.44 223.62L354.73 184.42Z" id="d1SZxUSR2C"></path><path d="M279.08 210.25C271.54 210.25 265.43 216.37 265.43 223.92C265.43 231.47 271.54 237.6 279.08 237.6C286.62 237.6 292.74 231.47 292.74 223.92C292.74 216.37 286.62 210.25 279.08 210.25Z" id="d4XrgoOoe"></path><path d="M333.53 156.23L319.91 131.17L291.59 131.17L320.35 177.02C306.77 198.44 299.23 210.33 297.73 212.71C299.65 215.92 300.79 219.63 300.83 223.65C301.95 223.65 307.58 223.65 317.72 223.65L377.99 131.17L349.57 131.17L333.53 156.23Z" id="bUlydpz8P"></path><path d="M259.6 214.33C259.6 209.65 259.6 186.26 259.6 144.14L288.39 144.14L288.39 131.17L215.14 131.17L215.14 144.14L243.66 144.14L243.66 223.62L257.38 223.62C257.94 219.3 258.68 216.2 259.6 214.33Z" id="a2Pkuzmo2P"></path></defs><g><g><use xlink:href="#a2mzoiEAp3" opacity="1" fill="#000000" fill-opacity="1"></use><g><use xlink:href="#a2mzoiEAp3" opacity="1" fill-opacity="0" stroke="#000000" stroke-width="1" stroke-opacity="0"></use></g></g><g><use xlink:href="#d1SZxUSR2C" opacity="1" fill="#782a91" fill-opacity="1"></use><g><use xlink:href="#d1SZxUSR2C" opacity="1" fill-opacity="0" stroke="#000000" stroke-width="1" stroke-opacity="0"></use></g></g><g><use xlink:href="#d4XrgoOoe" opacity="1" fill="#782a91" fill-opacity="1"></use><g><use xlink:href="#d4XrgoOoe" opacity="1" fill-opacity="0" stroke="#000000" stroke-width="1" stroke-opacity="0"></use></g></g><g><use xlink:href="#bUlydpz8P" opacity="1" fill="#782a91" fill-opacity="1"></use><g><use xlink:href="#bUlydpz8P" opacity="1" fill-opacity="0" stroke="#000000" stroke-width="1" stroke-opacity="0"></use></g></g><g><use xlink:href="#a2Pkuzmo2P" opacity="1" fill="#000000" fill-opacity="1"></use><g><use xlink:href="#a2Pkuzmo2P" opacity="1" fill-opacity="0" stroke="#000000" stroke-width="1" stroke-opacity="0"></use></g></g></g></svg>