<?xml version="1.0" encoding="UTF-8" standalone="no"?>
<!DOCTYPE svg PUBLIC "-//W3C//DTD SVG 1.1//EN" "http://www.w3.org/Graphics/SVG/1.1/DTD/svg11.dtd">
<svg version="1.1" xmlns="http://www.w3.org/2000/svg" xmlns:xlink="http://www.w3.org/1999/xlink" preserveAspectRatio="xMidYMid meet" viewBox="6.305225295462343 517.6923811357918 300.24068747576104 137.95071394477088" width="296.24" height="133.95"><defs><path d="M38.75 620.86C38.75 620.86 33.69 623.8 42.35 624.79C52.84 625.99 58.2 625.82 69.77 623.63C69.77 623.63 72.8 625.54 77.05 627.19C51.13 638.29 18.4 626.54 38.75 620.86" id="aPIEg970k"></path><path d="M35.58 606.36C35.58 606.36 29.91 610.56 38.58 611.46C49.78 612.61 58.63 612.71 73.95 609.76C73.95 609.76 76.07 611.91 79.4 613.08C48.06 622.24 13.16 613.8 35.58 606.36" id="bhCGPcfZj"></path><path d="M62.28 581.77C68.67 589.13 60.6 595.74 60.6 595.74C60.6 595.74 76.82 587.37 69.37 576.89C62.42 567.11 57.08 562.26 85.96 545.51C85.96 545.51 40.64 556.83 62.28 581.77" id="b4pJ7AgGeD"></path><path d="M96.56 631.58C96.56 631.58 100.3 634.66 92.44 637.05C77.48 641.58 30.17 642.95 17.03 637.23C12.31 635.17 21.17 632.32 23.95 631.72C26.86 631.09 28.52 631.21 28.52 631.21C23.27 627.51 -5.43 638.48 13.94 641.62C66.78 650.19 110.27 637.76 96.56 631.58" id="a45ivqZoXE"></path><path d="M41.18 591.34C41.18 591.34 17.12 597.06 32.66 599.13C39.23 600.01 52.31 599.81 64.49 598.79C74.45 597.95 84.45 596.17 84.45 596.17C84.45 596.17 80.94 597.67 78.4 599.4C53.96 605.83 6.76 602.84 20.35 596.27C31.84 590.71 41.18 591.34 41.18 591.34" id="bzxXlslfl"></path><path d="M84.35 615.47C109.19 602.56 97.7 590.16 89.69 591.83C87.72 592.24 86.84 592.59 86.84 592.59C86.84 592.59 87.57 591.45 88.97 590.96C104.83 585.38 117.02 607.4 83.85 616.12C83.85 616.12 84.23 615.78 84.35 615.47" id="c11kOdvpM1"></path><path d="M69.66 518.69C69.66 518.69 83.42 532.45 56.62 553.61C35.12 570.59 51.71 580.26 56.61 591.32C44.06 580 34.85 570.04 41.03 560.76C50.1 547.15 75.21 540.55 69.66 518.69" id="cw51GROM"></path><path d="M43.62 650.44C67.47 651.97 104.08 649.6 104.95 638.32C104.95 638.32 103.28 642.59 85.24 645.99C64.89 649.82 39.79 649.37 24.91 646.92C24.91 646.92 27.96 649.44 43.62 650.44" id="b87OApfQJ"></path><path d="M185.67 618.99C181.45 622.65 176.99 624.71 172.99 624.71C167.28 624.71 164.19 621.28 164.19 615.79C164.19 609.85 167.5 605.51 180.76 605.51C181.09 605.51 182.72 605.51 185.67 605.51L185.67 618.99M197.31 591.46C197.31 581.07 191.39 574.21 177.1 574.21C168.76 574.21 161.45 576.27 155.51 578.9C155.68 579.62 157.05 585.38 157.23 586.1C161.9 584.38 167.95 582.78 173.9 582.78C182.13 582.78 185.67 586.1 185.67 592.95C185.67 593.29 185.67 595 185.67 598.09C183.2 598.09 181.83 598.09 181.56 598.09C161.56 598.09 152.54 605.85 152.54 617.5C152.54 627.56 158.49 633.27 169.68 633.27C176.87 633.27 182.24 630.3 187.27 625.96C187.33 626.37 187.63 628.43 188.18 632.13L197.31 632.13C197.31 607.73 197.31 594.17 197.31 591.46Z" id="g6MrirdOtJ"></path><path d="M236.18 632.13L221.66 632.13L204.17 575.24L216.86 575.24L227.71 610.19C229.15 616.5 229.96 620 230.12 620.71C235.6 605.51 239.49 590.09 241.43 575.24C242.66 575.24 252.53 575.24 253.77 575.24C250.46 593.97 244.51 614.54 236.18 632.13" id="c7FPm5mP4"></path><path d="M291.9 618.99C287.67 622.65 283.21 624.71 279.21 624.71C273.51 624.71 270.41 621.28 270.41 615.79C270.41 609.85 273.73 605.51 286.99 605.51C287.31 605.51 288.95 605.51 291.9 605.51L291.9 618.99M303.55 591.46C303.55 581.07 297.61 574.21 283.33 574.21C274.99 574.21 267.68 576.27 261.74 578.9C261.91 579.62 263.28 585.38 263.45 586.1C268.13 584.38 274.19 582.78 280.13 582.78C288.36 582.78 291.9 586.1 291.9 592.95C291.9 593.29 291.9 595 291.9 598.09C289.43 598.09 288.06 598.09 287.79 598.09C267.78 598.09 258.77 605.85 258.77 617.5C258.77 627.56 264.71 633.27 275.9 633.27C283.1 633.27 288.46 630.3 293.49 625.96C293.56 626.37 293.86 628.43 294.41 632.13L303.55 632.13C303.55 607.73 303.55 594.17 303.55 591.46Z" id="bvd3D8oO0"></path><path d="M139.77 641.79C136.45 646.64 131.09 650.47 125.22 652.64C124.64 651.97 120.04 646.55 119.47 645.88C123.94 643.58 127.77 639.88 129.55 636.43C131.09 633.36 131.73 629.41 131.73 619.96C131.73 615.63 131.73 593.98 131.73 555.01L144.1 555.01C144.1 593.44 144.1 614.8 144.1 619.07C144.1 631.71 143.09 636.81 139.77 641.79" id="c3F3m3SXA"></path></defs><g><g><use xlink:href="#aPIEg970k" opacity="1" fill="#5382a1" fill-opacity="1"></use><g><use xlink:href="#aPIEg970k" opacity="1" fill-opacity="0" stroke="#000000" stroke-width="1" stroke-opacity="0"></use></g></g><g><use xlink:href="#bhCGPcfZj" opacity="1" fill="#5382a1" fill-opacity="1"></use><g><use xlink:href="#bhCGPcfZj" opacity="1" fill-opacity="0" stroke="#000000" stroke-width="1" stroke-opacity="0"></use></g></g><g><use xlink:href="#b4pJ7AgGeD" opacity="1" fill="#f8981d" fill-opacity="1"></use><g><use xlink:href="#b4pJ7AgGeD" opacity="1" fill-opacity="0" stroke="#000000" stroke-width="1" stroke-opacity="0"></use></g></g><g><use xlink:href="#a45ivqZoXE" opacity="1" fill="#5382a1" fill-opacity="1"></use><g><use xlink:href="#a45ivqZoXE" opacity="1" fill-opacity="0" stroke="#000000" stroke-width="1" stroke-opacity="0"></use></g></g><g><use xlink:href="#bzxXlslfl" opacity="1" fill="#5382a1" fill-opacity="1"></use><g><use xlink:href="#bzxXlslfl" opacity="1" fill-opacity="0" stroke="#000000" stroke-width="1" stroke-opacity="0"></use></g></g><g><use xlink:href="#c11kOdvpM1" opacity="1" fill="#5382a1" fill-opacity="1"></use><g><use xlink:href="#c11kOdvpM1" opacity="1" fill-opacity="0" stroke="#000000" stroke-width="1" stroke-opacity="0"></use></g></g><g><use xlink:href="#cw51GROM" opacity="1" fill="#f8981d" fill-opacity="1"></use><g><use xlink:href="#cw51GROM" opacity="1" fill-opacity="0" stroke="#000000" stroke-width="1" stroke-opacity="0"></use></g></g><g><use xlink:href="#b87OApfQJ" opacity="1" fill="#5382a1" fill-opacity="1"></use><g><use xlink:href="#b87OApfQJ" opacity="1" fill-opacity="0" stroke="#000000" stroke-width="1" stroke-opacity="0"></use></g></g><g><use xlink:href="#g6MrirdOtJ" opacity="1" fill="#f8981d" fill-opacity="1"></use><g><use xlink:href="#g6MrirdOtJ" opacity="1" fill-opacity="0" stroke="#000000" stroke-width="1" stroke-opacity="0"></use></g></g><g><use xlink:href="#c7FPm5mP4" opacity="1" fill="#f8981d" fill-opacity="1"></use><g><use xlink:href="#c7FPm5mP4" opacity="1" fill-opacity="0" stroke="#000000" stroke-width="1" stroke-opacity="0"></use></g></g><g><use xlink:href="#bvd3D8oO0" opacity="1" fill="#f8981d" fill-opacity="1"></use><g><use xlink:href="#bvd3D8oO0" opacity="1" fill-opacity="0" stroke="#000000" stroke-width="1" stroke-opacity="0"></use></g></g><g><use xlink:href="#c3F3m3SXA" opacity="1" fill="#f8981d" fill-opacity="1"></use><g><use xlink:href="#c3F3m3SXA" opacity="1" fill-opacity="0" stroke="#000000" stroke-width="1" stroke-opacity="0"></use></g></g></g></svg>