<?xml version="1.0" encoding="UTF-8" standalone="no"?>
<!DOCTYPE svg PUBLIC "-//W3C//DTD SVG 1.1//EN" "http://www.w3.org/Graphics/SVG/1.1/DTD/svg11.dtd">
<svg version="1.1" xmlns="http://www.w3.org/2000/svg" xmlns:xlink="http://www.w3.org/1999/xlink" preserveAspectRatio="xMidYMid meet" viewBox="5.002968757219989 384.3380782918157 413.2264582865271 105.04000000000008" width="409.23" height="101.04"><defs><path d="M103.6 410.27C103.54 408.06 103.41 405.83 103.03 403.64C102.67 401.44 101.99 399.32 101.02 397.33C99.06 393.34 95.92 390.09 92.06 388.05C90.14 387.05 88.08 386.35 85.96 385.98C83.84 385.58 81.69 385.45 79.55 385.39C78.56 385.36 77.58 385.35 76.6 385.34C75.43 385.34 74.27 385.34 73.1 385.34C69.45 385.34 40.2 385.34 36.55 385.34C35.38 385.34 34.22 385.34 33.05 385.34C32.07 385.35 31.08 385.36 30.1 385.39C29.57 385.41 29.03 385.43 28.49 385.45C26.89 385.53 25.27 385.68 23.69 385.98C22.1 386.26 20.55 386.72 19.07 387.35C16.57 388.42 14.31 389.98 12.4 391.96C10.88 393.53 9.6 395.34 8.63 397.33C7.63 399.35 7 401.41 6.62 403.64C6.24 405.83 6.11 408.06 6.05 410.27C6.03 411.29 6.01 412.31 6.01 413.32C6 414.53 6 415.74 6 416.94C6 420.73 6 450.99 6 454.77C6 455.98 6 457.18 6.01 458.39C6.02 459.41 6.03 460.42 6.05 461.44C6.11 463.65 6.24 465.89 6.62 468.07C6.98 470.27 7.66 472.4 8.63 474.39C10.59 478.38 13.73 481.63 17.59 483.66C19.54 484.69 21.54 485.34 23.69 485.74C25.8 486.14 27.96 486.27 30.1 486.33C31.08 486.35 32.07 486.37 33.05 486.37C34.21 486.38 35.38 486.38 36.55 486.38C40.2 486.38 69.45 486.38 73.1 486.38C74.26 486.38 75.43 486.38 76.6 486.37C77.58 486.37 78.56 486.35 79.54 486.33C81.68 486.27 83.84 486.14 85.96 485.74C88.08 485.37 90.14 484.67 92.06 483.66C95.92 481.63 99.05 478.38 101.02 474.39C102.01 472.37 102.64 470.3 103.03 468.08C103.41 465.89 103.54 463.66 103.59 461.44C103.62 460.43 103.63 459.41 103.64 458.39C103.64 457.19 103.64 455.98 103.64 454.77C103.64 450.99 103.64 420.73 103.64 416.94C103.64 415.74 103.64 414.53 103.64 413.32C103.64 412.31 103.62 411.29 103.6 410.27Z" id="a3yb6gG97j"></path><path d="M83.37 447.7C83.47 447.32 83.58 446.94 83.68 446.55C87.73 429.84 77.84 410.09 61.11 399.69C68.44 409.98 71.68 422.44 68.8 433.34C68.54 434.31 68.24 435.24 67.89 436.15C67.42 435.83 66.93 435.53 66.43 435.25C66.43 435.25 49.78 424.62 31.74 405.8C31.26 405.31 41.36 420.73 52.82 433.26C47.42 430.13 32.37 418.8 22.85 409.78C24.02 411.8 25.41 413.74 26.94 415.62C34.89 426.05 45.27 438.93 57.69 448.82C48.96 454.35 36.63 454.78 24.34 448.82C21.34 447.36 18.48 445.6 15.8 443.55C21.3 452.58 29.3 459.68 38.76 463.92C50.38 469.09 61.94 468.74 70.55 464C70.55 464 70.54 464.01 70.54 464.01C70.58 463.99 70.63 463.96 70.67 463.93C71.02 463.74 71.37 463.54 71.72 463.33C75.85 461.1 84.02 458.85 88.41 467.68C89.48 469.84 91.76 458.39 83.38 447.71C83.37 447.71 83.37 447.7 83.37 447.7Z" id="a3rCDhtLib"></path><path d="M155.43 473.35C168.99 473.35 178.76 466.87 178.76 457.89C178.76 450.17 172.84 445.45 159.21 442.31C157.89 442 147.34 439.54 146.02 439.23C127.05 434.91 118.49 427.05 118.49 414.08C118.49 398.11 133.68 387.04 155.29 387.04C176.26 387.04 191.17 398.17 191.67 414.22C190.28 414.22 179.15 414.22 177.76 414.22C176.69 404.39 167.99 398.37 154.94 398.37C142.02 398.37 133.04 404.46 133.04 413.36C133.04 420.3 138.6 424.43 152.29 427.64C153.39 427.9 162.18 430 163.28 430.26C184.54 435.04 193.24 442.64 193.24 456.32C193.24 473.74 178.18 484.68 154.22 484.68C131.97 484.68 116.78 473.81 115.63 456.98C116.57 456.98 121.25 456.98 129.69 456.98C137.34 467.89 145.92 473.35 155.43 473.35ZM281.58 483.1L267.6 483.1L251.27 430.85L250.99 430.85L234.72 483.1L220.75 483.1L200.06 414.67L213.61 414.67L228.02 469.61L228.3 469.61L244.57 414.67L257.69 414.67L274.09 469.61L274.38 469.61L288.79 414.67L302.2 414.67L281.58 483.1ZM319.42 388.81C323.99 388.81 327.7 392.15 327.7 396.27C327.7 400.4 323.99 403.8 319.42 403.8C314.9 403.78 311.25 400.42 311.22 396.27C311.22 392.15 314.93 388.81 319.42 388.81ZM312.65 414.67L326.27 414.67L326.27 483.1L312.65 483.1L312.65 414.67ZM415.23 424.76L415.23 414.67L400.82 414.67L400.82 398.3L387.27 398.3L387.27 414.67L361.23 414.67C361.23 411.06 361.23 409.05 361.23 408.65C361.3 402.56 363.87 400 370 400C372 400 374 400.2 375.64 400.46C375.64 399.48 375.64 391.62 375.64 390.64C373.25 390.29 370.85 390.12 368.44 390.11C353.88 390.11 347.75 395.68 347.75 408.45C347.75 408.86 347.75 410.94 347.75 414.67L337.34 414.67L337.34 424.76L347.75 424.76L347.75 483.1L361.3 483.1L361.3 424.76L387.27 424.76C387.27 449 387.27 462.47 387.27 465.16C387.27 478.39 392.76 483.49 407.03 483.49C410.1 483.49 413.59 483.3 415.16 482.97C415.16 481.95 415.16 473.78 415.16 472.75C413.46 472.95 411.74 473.06 410.02 473.08C403.68 473.08 400.82 470.33 400.82 464.18C400.82 461.55 400.82 448.41 400.82 424.76L415.23 424.76Z" id="c4FcrJzMWn"></path></defs><g><g><use xlink:href="#a3yb6gG97j" opacity="1" fill="#f05138" fill-opacity="1"></use><g><use xlink:href="#a3yb6gG97j" opacity="1" fill-opacity="0" stroke="#000000" stroke-width="1" stroke-opacity="0"></use></g></g><g><use xlink:href="#a3rCDhtLib" opacity="1" fill="#ffffff" fill-opacity="1"></use><g><use xlink:href="#a3rCDhtLib" opacity="1" fill-opacity="0" stroke="#000000" stroke-width="1" stroke-opacity="0"></use></g></g><g><use xlink:href="#c4FcrJzMWn" opacity="1" fill="#000000" fill-opacity="1"></use><g><use xlink:href="#c4FcrJzMWn" opacity="1" fill-opacity="0" stroke="#000000" stroke-width="1" stroke-opacity="0"></use></g></g></g></svg>