<svg xmlns="http://www.w3.org/2000/svg" width="757" height="247" viewBox="0 0 757 247">
  <defs>
    <style>
      .cls-1 {
        fill: #00c1b5;
        fill-rule: evenodd;
      }
    </style>
  </defs>
  <path id="logo" class="cls-1" d="M80.924,64.015q2.636-2.636,7.516-8.043,6.987-7.516,7.647-8.307a11.583,11.583,0,0,0,2.505-6.856,15.007,15.007,0,0,0-3.164-8.57,21.8,21.8,0,0,0-2.967-3.362q-1.65-1.514-10.087-8.5-10.417-9.1-12.13-10.152Q63.915,6.4,59.828,6.4,56,6.4,49.939,11.8q0.13,1.32,4.219,3.033a7.881,7.881,0,0,1,4.087,3.3,19.622,19.622,0,0,1,2.769,9.757q0,6.725-9.1,27.557-1.32,3.164-7.647,14.372-6.2,13.053-9.757,19.514-3.826,6.857-8.834,15.162,1.845-1.315,2.241-1.582,1.449-.659,12.13-4.615,6.854-2.5,14.767-9.1a19,19,0,0,1,2.505.527l10.021,4.615a20.874,20.874,0,0,0,9.23,2.11,49.232,49.232,0,0,0,11.6-1.714,262.461,262.461,0,0,0,29.8-9.23q6.328-2.373,9.757-2.373a11.311,11.311,0,0,1,6.857,2.769q6.063,4.747,8.306,16.614,1.317,6.99,1.319,24,0,25.71-4.483,45.62-1.716,7.911-7.384,25.316-10.022-8.042-15.3-8.966-7.648-1.583-12.394-2.769a44.149,44.149,0,0,0-11.734-1.846,9.273,9.273,0,0,0-2.637.264,8.944,8.944,0,0,0-2.373,1.582,7.61,7.61,0,0,1-2.571,1.714q-0.726.133-9.164,1.318l-5.142.923q-13.186,1.848-13.449,1.846c-0.089,0-.527-0.043-1.319-0.132H55.477a2.476,2.476,0,0,0-1.319.264,6.792,6.792,0,0,1-2.9,1.319,13.865,13.865,0,0,0-1.978-3.428,140.051,140.051,0,0,1,16.481-10.285l7.647-3.692a38.4,38.4,0,0,0,8.966-6.2l10.944-9.625A66.057,66.057,0,0,1,104,152.224q10.414-6.459,12.658-8.834a8,8,0,0,0,2.5-5.538q0-5.142-6.329-9.23-4.746-3.164-15.426-4.483-4.88-.658-6.2-1.45l-4.351-2.5a7.052,7.052,0,0,0-3.428-.791q-5.408,0-9.23,7.251-4.351,1.848-9.361,3.429-5.275,1.848-6.2,2.241A111.593,111.593,0,0,1,46.379,136.8q-4.351,1.058-4.351,2.241,0,0.924,2.637,2.374,0.263,0.132,2.241,1.45,0.13,0.528,5.8,2.9a69.066,69.066,0,0,0,6.988,2.769q1.582,0.662,10.153.791,1.978,0.132,8.175.264a73.087,73.087,0,0,1-12.658,21.1q-4.351,4.617-3.824,5.274-0.661,1.714-1.187,1.714a2.773,2.773,0,0,0-1.45.923q-0.4.661-3.956,4.615a32.657,32.657,0,0,1-6.065,5.01q-1.978-6.591-4.219-13.317-3.43-10.809-5.274-18.987Q36.227,142.2,33.721,133.5a88,88,0,0,0-11.471-24,54.181,54.181,0,0,0-6.527-8.373A109.945,109.945,0,0,0,6.56,93.286q-0.791,6.462-1.187,11.339a52.982,52.982,0,0,1-3.164,15.954,17.828,17.828,0,0,0-1.45,6.329q0,3.826,2.637,16.35a117.011,117.011,0,0,0,4.087,12.921l2.769,8.175q0.4,2.373,6.724,14.635,3.823,7.254,5.142,9.889,5.933,12.659,8.175,15.822a68.836,68.836,0,0,0,9.493,11.076Q44.533,220,48.752,220a5.18,5.18,0,0,0,4.879-2.5,8.93,8.93,0,0,0,1.319-4.219,10.763,10.763,0,0,0-1.714-4.747q13.711,2.111,19.646,2.11a71.727,71.727,0,0,0,9.757-.528q18.458-3.031,25.711-3.032a31.925,31.925,0,0,1,3.3.132q9.756,1.452,9.889,1.45a15.118,15.118,0,0,0,3.56-.527,79.407,79.407,0,0,1,7.648,9.1,71.326,71.326,0,0,0,5.274,7.12q4.35,4.086,9.229,4.088a8.783,8.783,0,0,0,7.252-3.824q1.582-2.241,5.406-10.812a104.243,104.243,0,0,0,6.856-16.481,224.131,224.131,0,0,0,6.065-25.843,113.064,113.064,0,0,0,1.583-14.372l1.582-12.13q0.525-8.57,2.373-21.492a31.412,31.412,0,0,1,2.242-5.933,58.215,58.215,0,0,0,2.637-6.2,17.85,17.85,0,0,0,.791-3.56,21.4,21.4,0,0,0-1.582-6.461A15.089,15.089,0,0,0,177.967,95,137.505,137.505,0,0,0,158.98,80.628Q136.7,66.521,129.709,66.52a15.1,15.1,0,0,0-5.933,1.846q-3.956.266-14.5,0.923-6.2.266-26.107,4.219a124.5,124.5,0,0,0-15.427,4.219q7.911-8.436,13.185-13.712h0ZM386.16,150.641q17.667,29.008,32.435,38.633,1.582,1.056,10.548,4.483a88.416,88.416,0,0,0,31.381,6.2,38.283,38.283,0,0,0,14.833-2.769q6.657-2.769,6.659-6.2,0-1.583-5.142-6.725A92.614,92.614,0,0,0,465.4,173.847q-13.447-9.888-18.327-12.262l-18.195-8.7a75.592,75.592,0,0,1-12.263-6.329l-7.251-4.878a115.554,115.554,0,0,1-14.9-13.054q-6.99-7.25-17.536-20.305,0.525-5.538.923-12.262a28.938,28.938,0,0,1,.923-5.933q14.636-6.063,18.459-7.12,0.658-.13,6.329-0.527,18.987,1.32,19.91,1.319,6.329,0,8.834-2.505a10.119,10.119,0,0,0,3.164-7.384q0-6.459-6.461-11.339-3.692-2.636-5.8-2.9-21.1-1.712-40.083-19.646Q385.9,26.439,385.9,23.273a7,7,0,0,0-.791-2.637,12.023,12.023,0,0,0-3.428-4.615q-1.187-1.054-7.252-3.692L355.966,1.781A9.006,9.006,0,0,0,351.483.595a9.948,9.948,0,0,0-4.219,1.055q-4.485,1.978-5.934,5.274a9.806,9.806,0,0,0-.527,3.56,5.947,5.947,0,0,0,.264,2.241q1.581,2.9,8.306,4.087a48.621,48.621,0,0,1,1.846,14.108q0,7.386-.132,11.075,0,9.231-.395,22.283,0,6.99-.132,11.339-2.244,1.187-19.118,6.724l-26.634,8.966a85.1,85.1,0,0,1-27.03,4.879,127.175,127.175,0,0,1-17.932-1.846q1.449,8.439,4.747,11.339l11.867,10.285q7.911,6.856,10.548,7.779,5.8,2.243,8.966,2.241a21.556,21.556,0,0,0,9.1-2.373q2.9-1.317,7.911-3.956,3.561-1.845,15.691-7.647-0.134,2.244-3.033,5.538-0.79.528-5.67,6.988Q308.1,141.019,283.184,165.8q-11.471,11.342-17.009,15.427-8.307,6.328-8.966,6.988-3.825,3.3-5.538,3.3-2.373,0-3.823-4.087h-0.791a0.86,0.86,0,0,0-.528.066q0,0.067-2.637,6.263a40.642,40.642,0,0,0-2.373,5.8,1.153,1.153,0,0,0,.132.528q1.053,2.5,4.351,2.5,1.582,0,21.887-2.637,7.516-.921,20.7-12.262,1.845-1.583,3.164-2.637,8.438-6.987,11.208-9.889a34.748,34.748,0,0,0,3.823,6.592q5.142,7.386,10.548,15.031l5.8,6.857q12.919,15.692,22.283,25.974,6.063,6.725,8.834,10.285A22.581,22.581,0,0,0,359,244.783a10.232,10.232,0,0,0,4.747,1.319,8.117,8.117,0,0,0,4.351-1.319,10.044,10.044,0,0,0,4.483-5.274q1.186-3.163,3.165-15.954,1.843-12.657,1.845-16.877,0-3.822-.395-12.658-0.4-3.956-.528-26.633,0-8.57-.131-28.876,4.48,3.827,9.625,12.13h0Zm5.8-94.8q1.054,1.715,4.088,7.779Q388,65.6,379.831,67.311q0.921-12.262,2.637-24.261,7.777,9.493,9.493,12.79h0ZM351.351,133.1q-0.4,4.089-.4,6.856,0,1.057.528,18.064l0.132,18.327q0.79,15.165.791,25.184a35.328,35.328,0,0,1-4.351.4q-8.177,0-20.7-7.384Q311.4,185.32,305.2,173.32q27.951-24.525,46.675-46.939-0.265,4.088-.527,6.724h0ZM669.376,46.479q0.264-3.69.264-4.615a21.7,21.7,0,0,0-1.055-5.933q-3.164-10.414-12.262-20.964Q644.719,1.518,634.04,1.518a11.575,11.575,0,0,0-6.856,2.373,20.852,20.852,0,0,0,2.241,3.956l5.406,5.8q0.921,0.791,1.187,4.615,2.241,22.284,4.615,34.677,2.5,12.791,3.032,18.064-10.416,7.386-29.8,20.964-3.559,3.3-5.01,4.615a24.147,24.147,0,0,0-2.9,3.23,14.628,14.628,0,0,0-1.187,3.626,216.468,216.468,0,0,1,21.756-2.769,10.744,10.744,0,0,0,4.351-1.319A118.619,118.619,0,0,1,646.3,91.7l-0.131,3.033q-15.428,22.942-25.316,40.479l-5.538,4.878q-4.617-13.053-9.229-19.382A32.265,32.265,0,0,0,594.221,110.3q-4.088-2.108-4.878-2.11a0.647,0.647,0,0,0-.66.791v0.264l3.56,7.779q1.451,3.034,1.451,12.526a82.869,82.869,0,0,1-3.165,21.756q-2.111,7.781-4.483,17.668-10.022,41.269-18.854,47.994,3.688,3.429,5.933,3.428t6.065-2.5a40.859,40.859,0,0,0,9.1-7.78q4.614-5.536,19.118-30.194l1.187-.659q2.5,10.155,3.428,12.526a30.579,30.579,0,0,0,2.637,4.944q1.449,2.176,8.834,12.065,3.294,4.221,6.856,4.219,1.188,0,3.56-2.241,7.12-6.855,15.295-20.7,8.7-14.9,17.932-39.16,4.746,7.12,9.493,14.767-9.494,20.174-14.9,28.085Q655,203.912,652.9,206.942q-4.089,5.407-6.856,6.856l-2.5-2.637a20.3,20.3,0,0,0-1.978,7.12q8.832,0,12.921-1.318,5.01-1.583,13.581-9.626a135.919,135.919,0,0,0,11.735-12q6.987-9.1,10.02-12.394,2.769,3.165,5.143,6.2,2.107,2.506,6.724,7.516,5.273,5.933,5.8,6.328a25.6,25.6,0,0,1,3.165,3.692,45.582,45.582,0,0,0,3.692,6.065q2.24,2.769,10.416,9.889,1.712,1.452,3.824,3.428,9.888,9.361,14.5,11.34a20.155,20.155,0,0,0,7.12,1.845,6.06,6.06,0,0,0,6.065-6.065,32.18,32.18,0,0,0-1.582-8.306,33.482,33.482,0,0,0-1.978-5.6q-1.187-2.571-7.383-14.833-9.364-25.712-10.548-29.4a19.72,19.72,0,0,0-1.319-3.824q-1.452-2.239-3.164-10.548-0.53-2.769-2.9-11.075,0.525,8.043.527,12,0,3.165-1.45,21.887-0.661,8.7-4.615,8.7a4.216,4.216,0,0,1-2.637-1.055q-1.848-1.317-7.383-8.439-8.7-11.338-10.549-14.635,8.965-15.161,11.735-21.36,3.823-8.307,3.824-15.031a28.4,28.4,0,0,0-.4-4.351,47.614,47.614,0,0,0-8.834-19.778q-5.67-7.645-7.911-11.075l-4.878-9.23a16.6,16.6,0,0,0-1.451,6.065,3.266,3.266,0,0,0,.264,1.45,96.181,96.181,0,0,1,3.824,9.625,45.829,45.829,0,0,1,.659,7.515,41.951,41.951,0,0,1-1.187,8.966q-1.848,7.782-9.889,25.315-7.253-12.787-9.493-19.118-2.507-7.383-4.746-16.745-1.32-5.538-1.715-8.373t-1.318-14.174q2.373-2.373,6.724-6.2Q688.1,71,691,69.025q4.876-3.164,5.406-5.274a12.015,12.015,0,0,0,.4-2.9,4.644,4.644,0,0,0-1.318-3.428q-1.452-1.582-7.252-2.241a50.6,50.6,0,0,1-8.7-1.978,22.272,22.272,0,0,0-4.747-1.319q-0.924,0-2.241,2.242-0.4,1.057-3.428,3.032h0q0-6.459.263-10.68h0ZM634.963,121.37l8.571-11.075a33.5,33.5,0,0,1,4.878-5.274q1.317,3.693,2.242,6.2,0.92,2.769,2.9,8.306,0.659,1.582,2.5,6.857a48.131,48.131,0,0,1-7.647-4.879,6.513,6.513,0,0,0-3.692-1.055,6.786,6.786,0,0,0-2.769.4,23.072,23.072,0,0,0-4.483,3.3,32.182,32.182,0,0,1-6.2,3.56,45.854,45.854,0,0,1,3.692-6.329h0Zm8.834,32.568q-1.977,6.462-5.142,14.5a136.273,136.273,0,0,1-10.021,20.305q-4.088-1.053-10.811-5.405-3.165-1.979-6.857-7.384,23.6-30.192,35.073-38.369-0.792,11.342-2.242,16.35h0ZM709.064,16.681a8.391,8.391,0,0,0-1.055-.132q-2.64,0-2.637,2.373a2.423,2.423,0,0,0,.791,1.978l5.274,3.692a18.982,18.982,0,0,1,3.164,3.824q2.375,3.693,2.374,6.065a7.026,7.026,0,0,1-.791,3.164,78.913,78.913,0,0,1-11.471,15.822q9.888-1.316,10.548-1.319,3.689,0,4.614,3.033a25.393,25.393,0,0,1,6.593-.923,41.625,41.625,0,0,1,11.076,1.45,23.44,23.44,0,0,0,5.01.791,7.508,7.508,0,0,0,4.878-1.714,7.035,7.035,0,0,0,1.978-5.406q0-5.538-4.087-11.471Q737.279,26.7,722.776,19.449a45.449,45.449,0,0,0-14.24-3.956ZM574.048,77.86a44.872,44.872,0,0,0-2.9-16.745,43.991,43.991,0,0,0-5.208-9.362,17.588,17.588,0,0,0-6.131-5.67q-1.848-1.054-1.978-1.846l-0.132-.791a3.3,3.3,0,0,0-1.45-.264q-0.662,0-3.692-2.373a8.142,8.142,0,0,0-5.142-1.45q-5.8,0-7.779,2.637a0.759,0.759,0,0,0-.132.527,1.226,1.226,0,0,0,1.45,1.319,11.344,11.344,0,0,0,1.582-.132q2.9,6.2,3.3,9.625A54.843,54.843,0,0,1,546.1,59.4q0,16.746-.923,30.326-0.791,11.076-1.186,21.36a228.139,228.139,0,0,1-21.36,15.031,111.706,111.706,0,0,1-14.636,7.911q11.735,7.649,23.6,7.648a70.8,70.8,0,0,0,13.053-1.583q0.13,5.276.132,7.78a141.992,141.992,0,0,1-1.055,18.722,23.766,23.766,0,0,1-1.912,6.923,60.4,60.4,0,0,1-5.208,8.372,26.152,26.152,0,0,1-5.669,5.933,34.03,34.03,0,0,0-6.857,3.429q-3.3,2.373-3.3,5.669a4.265,4.265,0,0,0,.132,1.055,16.337,16.337,0,0,0,2.241,3.164l3.033,3.824q7.25,14.636,7.911,15.295a6.793,6.793,0,0,0,4.878,2.241,7.867,7.867,0,0,0,6.066-3.032c-0.089.088,0.02-.087,0.329-0.528s1.56-2.459,3.758-6.065q14.635-21.885,15.558-23.6,8.7-15.294,16.086-31.644a114.57,114.57,0,0,0,5.538-14.636,42.461,42.461,0,0,0,1.582-11.471V129.15q-5.274,12.79-9.1,18.459-3.693,5.67-15.559,18.723,4.351-17.4,5.406-23.074,0.525-2.373,2.5-18.459a136.473,136.473,0,0,1,9.889-9.626,13.212,13.212,0,0,0,4.351-10.02,9.6,9.6,0,0,0-1.846-6.065q-2.242-3.294-10.548-4.219,1.054-11.471,1.055-17.009h0Z"/>
</svg>
